AbhayaLibre-sinhala-0.ufo
<glyph name="si_U" format="1">
  <advance width="635"/>
  <unicode hex="0D8B"/>
  <outline>
    <contour>
      <point x="31" y="97" type="curve" smooth="yes"/>
      <point x="31" y="205"/>
      <point x="118" y="289"/>
      <point x="258" y="289" type="curve" smooth="yes"/>
      <point x="495" y="289" type="line"/>
      <point x="492" y="338"/>
      <point x="450" y="381"/>
      <point x="398" y="381" type="curve" smooth="yes"/>
      <point x="371" y="381"/>
      <point x="353" y="368"/>
      <point x="339" y="346" type="curve" smooth="yes"/>
      <point x="331" y="334"/>
      <point x="322" y="320"/>
      <point x="298" y="320" type="curve" smooth="yes"/>
      <point x="277" y="320"/>
      <point x="261" y="336"/>
      <point x="261" y="356" type="curve" smooth="yes"/>
      <point x="261" y="400"/>
      <point x="305" y="422"/>
      <point x="367" y="422" type="curve" smooth="yes"/>
      <point x="458" y="422"/>
      <point x="526" y="362"/>
      <point x="526" y="270" type="curve" smooth="yes"/>
      <point x="526" y="268"/>
      <point x="526" y="267"/>
      <point x="526" y="265" type="curve"/>
      <point x="291" y="265" type="line" smooth="yes"/>
      <point x="170" y="265"/>
      <point x="106" y="199"/>
      <point x="106" y="107" type="curve" smooth="yes"/>
      <point x="106" y="-30"/>
      <point x="211" y="-125"/>
      <point x="333" y="-125" type="curve" smooth="yes"/>
      <point x="457" y="-125"/>
      <point x="561" y="-39"/>
      <point x="561" y="67" type="curve"/>
      <point x="589" y="67" type="line"/>
      <point x="589" y="-63"/>
      <point x="468" y="-157"/>
      <point x="320" y="-157" type="curve" smooth="yes"/>
      <point x="173" y="-157"/>
      <point x="31" y="-60"/>
    </contour>
  </outline>
</glyph>
<glyph name="si_Kha" format="1">
  <advance width="615"/>
  <unicode hex="0D9B"/>
  <outline>
    <contour>
      <point x="38" y="0" type="move" name="_cursive"/>
    </contour>
    <contour>
      <point x="91" y="70" type="curve" smooth="yes"/>
      <point x="91" y="47"/>
      <point x="110" y="28"/>
      <point x="133" y="28" type="curve" smooth="yes"/>
      <point x="156" y="28"/>
      <point x="175" y="47"/>
      <point x="175" y="70" type="curve" smooth="yes"/>
      <point x="175" y="93"/>
      <point x="156" y="112"/>
      <point x="133" y="112" type="curve" smooth="yes"/>
      <point x="110" y="112"/>
      <point x="91" y="93"/>
    </contour>
    <contour>
      <point x="31" y="179" type="curve" smooth="yes"/>
      <point x="31" y="315"/>
      <point x="121" y="387"/>
      <point x="234" y="387" type="curve" smooth="yes"/>
      <point x="325" y="387"/>
      <point x="403" y="335"/>
      <point x="403" y="252" type="curve" smooth="yes"/>
      <point x="403" y="196"/>
      <point x="376" y="149"/>
      <point x="338" y="112" type="curve"/>
      <point x="341" y="113"/>
      <point x="344" y="113"/>
      <point x="347" y="113" type="curve" smooth="yes"/>
      <point x="375" y="113"/>
      <point x="381" y="65"/>
      <point x="424" y="65" type="curve" smooth="yes"/>
      <point x="488" y="65"/>
      <point x="533" y="193"/>
      <point x="533" y="294" type="curve" smooth="yes"/>
      <point x="533" y="456"/>
      <point x="434" y="562"/>
      <point x="287" y="562" type="curve" smooth="yes"/>
      <point x="200" y="562"/>
      <point x="136" y="530"/>
      <point x="95" y="459" type="curve"/>
      <point x="62" y="459" type="line"/>
      <point x="106" y="540"/>
      <point x="182" y="587"/>
      <point x="291" y="587" type="curve" smooth="yes"/>
      <point x="453" y="587"/>
      <point x="570" y="462"/>
      <point x="570" y="279" type="curve" smooth="yes"/>
      <point x="570" y="146"/>
      <point x="511" y="0"/>
      <point x="406" y="0" type="curve" smooth="yes"/>
      <point x="344" y="0"/>
      <point x="339" y="53"/>
      <point x="313" y="53" type="curve" smooth="yes"/>
      <point x="300" y="53"/>
      <point x="275" y="33"/>
      <point x="234" y="-21" type="curve"/>
      <point x="199" y="-18" type="line"/>
      <point x="212" y="-5"/>
      <point x="240" y="33"/>
      <point x="281" y="82" type="curve" smooth="yes"/>
      <point x="332" y="143"/>
      <point x="358" y="190"/>
      <point x="358" y="227" type="curve" smooth="yes"/>
      <point x="358" y="280"/>
      <point x="320" y="312"/>
      <point x="230" y="312" type="curve" smooth="yes"/>
      <point x="152" y="312"/>
      <point x="62" y="265"/>
      <point x="62" y="152" type="curve" smooth="yes"/>
      <point x="62" y="140"/>
      <point x="64" y="116"/>
      <point x="70" y="99" type="curve"/>
      <point x="78" y="126"/>
      <point x="106" y="142"/>
      <point x="132" y="142" type="curve" smooth="yes"/>
      <point x="177" y="142"/>
      <point x="205" y="113"/>
      <point x="205" y="70" type="curve" smooth="yes"/>
      <point x="205" y="36"/>
      <point x="176" y="-1"/>
      <point x="138" y="-1" type="curve" smooth="yes"/>
      <point x="55" y="-1"/>
      <point x="31" y="106"/>
    </contour>
  </outline>
</glyph>
<glyph name="si_Bha" format="1">
  <advance width="654"/>
  <unicode hex="0DB7"/>
  <outline>
    <contour>
      <point x="24" y="0" type="move" name="_cursive"/>
    </contour>
    <contour>
      <point x="6" y="265" type="curve"/>
      <point x="6" y="296" type="line"/>
      <point x="207" y="296" type="line"/>
      <point x="167" y="271" type="line"/>
      <point x="137" y="271" type="line" smooth="yes"/>
      <point x="68" y="270"/>
      <point x="22" y="268"/>
    </contour>
    <contour>
      <point x="48" y="151" type="curve" smooth="yes"/>
      <point x="48" y="247"/>
      <point x="145" y="296"/>
      <point x="213" y="296" type="curve" smooth="yes"/>
      <point x="217" y="296"/>
      <point x="213" y="296"/>
      <point x="217" y="296" type="curve"/>
      <point x="217" y="337"/>
      <point x="193" y="374"/>
      <point x="156" y="374" type="curve" smooth="yes"/>
      <point x="135" y="374"/>
      <point x="125" y="363"/>
      <point x="119" y="348" type="curve" smooth="yes"/>
      <point x="113" y="332"/>
      <point x="101" y="319"/>
      <point x="80" y="319" type="curve" smooth="yes"/>
      <point x="60" y="319"/>
      <point x="48" y="333"/>
      <point x="48" y="355" type="curve" smooth="yes"/>
      <point x="48" y="384"/>
      <point x="75" y="422"/>
      <point x="131" y="422" type="curve" smooth="yes"/>
      <point x="208" y="422"/>
      <point x="248" y="351"/>
      <point x="249" y="271" type="curve"/>
      <point x="237" y="273"/>
      <point x="228" y="273"/>
      <point x="224" y="273" type="curve" smooth="yes"/>
      <point x="160" y="273"/>
      <point x="84" y="239"/>
      <point x="84" y="171" type="curve" smooth="yes"/>
      <point x="84" y="103"/>
      <point x="147" y="70"/>
      <point x="219" y="70" type="curve" smooth="yes"/>
      <point x="283" y="70"/>
      <point x="338" y="98"/>
      <point x="338" y="160" type="curve" smooth="yes"/>
      <point x="338" y="190"/>
      <point x="324" y="207"/>
      <point x="304" y="207" type="curve" smooth="yes"/>
      <point x="291" y="207"/>
      <point x="278" y="199"/>
      <point x="271" y="178" type="curve"/>
      <point x="249" y="188" type="line"/>
      <point x="258" y="310"/>
      <point x="337" y="422"/>
      <point x="436" y="422" type="curve" smooth="yes"/>
      <point x="545" y="422"/>
      <point x="606" y="321"/>
      <point x="606" y="206" type="curve" smooth="yes"/>
      <point x="606" y="90"/>
      <point x="519" y="-1"/>
      <point x="399" y="-1" type="curve" smooth="yes"/>
      <point x="386" y="-1"/>
      <point x="373" y="0"/>
      <point x="359" y="2" type="curve"/>
      <point x="359" y="28" type="line"/>
      <point x="371" y="26"/>
      <point x="383" y="25"/>
      <point x="395" y="25" type="curve" smooth="yes"/>
      <point x="492" y="25"/>
      <point x="560" y="91"/>
      <point x="560" y="188" type="curve" smooth="yes"/>
      <point x="560" y="281"/>
      <point x="509" y="354"/>
      <point x="420" y="354" type="curve" smooth="yes"/>
      <point x="349" y="354"/>
      <point x="301" y="311"/>
      <point x="280" y="224" type="curve"/>
      <point x="290" y="230"/>
      <point x="300" y="231"/>
      <point x="309" y="231" type="curve" smooth="yes"/>
      <point x="346" y="231"/>
      <point x="373" y="195"/>
      <point x="373" y="142" type="curve" smooth="yes"/>
      <point x="373" y="52"/>
      <point x="304" y="-1"/>
      <point x="212" y="-1" type="curve" smooth="yes"/>
      <point x="116" y="-1"/>
      <point x="48" y="59"/>
    </contour>
  </outline>
</glyph>
<glyph name="si_Halant" format="1">
  <advance width="1"/>
  <unicode hex="0DCA"/>
  <outline>
    <contour>
      <point x="-137" y="340" type="line"/>
      <point x="-137" y="665" type="line"/>
      <point x="-84" y="624"/>
      <point x="10" y="619"/>
      <point x="10" y="529" type="curve" smooth="yes"/>
      <point x="10" y="486"/>
      <point x="-24" y="457"/>
      <point x="-66" y="457" type="curve" smooth="yes"/>
      <point x="-81" y="457"/>
      <point x="-95" y="460"/>
      <point x="-110" y="467" type="curve"/>
      <point x="-110" y="323" type="line"/>
    </contour>
    <contour>
      <point x="-110" y="491" type="line"/>
      <point x="-101" y="486"/>
      <point x="-91" y="484"/>
      <point x="-78" y="484" type="curve" smooth="yes"/>
      <point x="-41" y="484"/>
      <point x="-26" y="509"/>
      <point x="-26" y="532" type="curve" smooth="yes"/>
      <point x="-26" y="573"/>
      <point x="-64" y="593"/>
      <point x="-110" y="623" type="curve"/>
    </contour>
  </outline>
</glyph>
<glyph name="si_MatraAa" format="1">
  <advance width="292"/>
  <unicode hex="0DCF"/>
  <outline>
    <contour>
      <point x="10" y="107" type="curve" smooth="yes"/>
      <point x="10" y="114"/>
      <point x="10" y="122"/>
      <point x="11" y="129" type="curve"/>
      <point x="37" y="129" type="line"/>
      <point x="36" y="124"/>
      <point x="36" y="119"/>
      <point x="36" y="114" type="curve" smooth="yes"/>
      <point x="36" y="67"/>
      <point x="60" y="35"/>
      <point x="104" y="35" type="curve" smooth="yes"/>
      <point x="162" y="36"/>
      <point x="188" y="89"/>
      <point x="188" y="196" type="curve" smooth="yes"/>
      <point x="188" y="303"/>
      <point x="162" y="357"/>
      <point x="104" y="357" type="curve" smooth="yes"/>
      <point x="67" y="357"/>
      <point x="36" y="325"/>
      <point x="36" y="278" type="curve" smooth="yes"/>
      <point x="36" y="273"/>
      <point x="36" y="269"/>
      <point x="37" y="264" type="curve"/>
      <point x="11" y="264" type="line"/>
      <point x="10" y="271"/>
      <point x="10" y="278"/>
      <point x="10" y="285" type="curve" smooth="yes"/>
      <point x="10" y="352"/>
      <point x="60" y="394"/>
      <point x="118" y="394" type="curve" smooth="yes"/>
      <point x="207" y="394"/>
      <point x="252" y="321"/>
      <point x="252" y="196" type="curve" smooth="yes"/>
      <point x="252" y="71"/>
      <point x="207" y="-1"/>
      <point x="118" y="-1" type="curve" smooth="yes"/>
      <point x="53" y="-1"/>
      <point x="10" y="40"/>
    </contour>
  </outline>
</glyph>
<glyph name="zwnj" format="1">
  <advance width="0"/>
  <unicode hex="200C"/>
  <outline>
    <contour>
      <point x="-20" y="9" type="line"/>
      <point x="-20" y="743" type="line"/>
      <point x="20" y="743" type="line"/>
      <point x="20" y="9" type="line"/>
    </contour>
  </outline>
</glyph>
<glyph name="si_JnyAe" format="1">
  <advance width="819"/>
  <outline>
    <contour>
      <point x="411" y="165" type="curve" smooth="yes"/>
      <point x="411" y="268"/>
      <point x="483" y="310"/>
      <point x="599" y="310" type="curve" smooth="yes"/>
      <point x="716" y="310" type="line"/>
      <point x="706" y="355"/>
      <point x="678" y="387"/>
      <point x="635" y="387" type="curve" smooth="yes"/>
      <point x="616" y="387"/>
      <point x="601" y="375"/>
      <point x="592" y="357" type="curve" smooth="yes"/>
      <point x="582" y="336"/>
      <point x="567" y="328"/>
      <point x="552" y="328" type="curve" smooth="yes"/>
      <point x="528" y="328"/>
      <point x="515" y="342"/>
      <point x="515" y="363" type="curve" smooth="yes"/>
      <point x="515" y="398"/>
      <point x="553" y="423"/>
      <point x="607" y="423" type="curve" smooth="yes"/>
      <point x="691" y="423"/>
      <point x="733" y="380"/>
      <point x="751" y="287" type="curve"/>
      <point x="617" y="287" type="line" smooth="yes"/>
      <point x="531" y="287"/>
      <point x="486" y="251"/>
      <point x="486" y="169" type="curve" smooth="yes"/>
      <point x="486" y="87"/>
      <point x="551" y="25"/>
      <point x="634" y="25" type="curve" smooth="yes"/>
      <point x="683" y="25"/>
      <point x="717" y="45"/>
      <point x="756" y="90" type="curve"/>
      <point x="778" y="73" type="line"/>
      <point x="752" y="44"/>
      <point x="742" y="5"/>
      <point x="742" y="-58" type="curve" smooth="yes"/>
      <point x="742" y="-124"/>
      <point x="769" y="-199"/>
      <point x="803" y="-199" type="curve"/>
      <point x="803" y="-223" type="line"/>
      <point x="800" y="-224"/>
      <point x="796" y="-225"/>
      <point x="792" y="-225" type="curve" smooth="yes"/>
      <point x="737" y="-225"/>
      <point x="695" y="-173"/>
      <point x="695" y="-102" type="curve" smooth="yes"/>
      <point x="695" y="-48"/>
      <point x="719" y="6"/>
      <point x="729" y="30" type="curve"/>
      <point x="666" y="-9"/>
      <point x="620" y="-50"/>
      <point x="620" y="-113" type="curve" smooth="yes"/>
      <point x="620" y="-171"/>
      <point x="654" y="-195"/>
      <point x="688" y="-201" type="curve"/>
      <point x="688" y="-223" type="line"/>
      <point x="684" y="-224"/>
      <point x="675" y="-225"/>
      <point x="670" y="-225" type="curve" smooth="yes"/>
      <point x="609" y="-225"/>
      <point x="562" y="-193"/>
      <point x="562" y="-129" type="curve" smooth="yes"/>
      <point x="562" y="-77"/>
      <point x="600" y="-40"/>
      <point x="646" y="1" type="curve"/>
      <point x="633" y="-1"/>
      <point x="620" y="-1"/>
      <point x="614" y="-1" type="curve" smooth="yes"/>
      <point x="479" y="-1"/>
      <point x="411" y="67"/>
    </contour>
    <contour>
      <point x="658" y="416" type="curve"/>
      <point x="540" y="399" type="line"/>
      <point x="534" y="399"/>
      <point x="531" y="400"/>
      <point x="525" y="400" type="curve" smooth="yes"/>
      <point x="421" y="400"/>
      <point x="360" y="332"/>
      <point x="339" y="230" type="curve"/>
      <point x="347" y="234"/>
      <point x="354" y="235"/>
      <point x="361" y="235" type="curve" smooth="yes"/>
      <point x="408" y="235"/>
      <point x="441" y="197"/>
      <point x="441" y="133" type="curve" smooth="yes"/>
      <point x="441" y="55"/>
      <point x="386" y="-2"/>
      <point x="301" y="-2" type="curve" smooth="yes"/>
      <point x="193" y="-2"/>
      <point x="131" y="94"/>
      <point x="131" y="202" type="curve" smooth="yes"/>
      <point x="131" y="322"/>
      <point x="204" y="422"/>
      <point x="312" y="422" type="curve" smooth="yes"/>
      <point x="316" y="422"/>
      <point x="321" y="421"/>
      <point x="325" y="421" type="curve"/>
      <point x="325" y="398" type="line"/>
      <point x="322" y="398"/>
      <point x="317" y="398"/>
      <point x="314" y="398" type="curve" smooth="yes"/>
      <point x="230" y="398"/>
      <point x="165" y="325"/>
      <point x="165" y="225" type="curve" smooth="yes"/>
      <point x="165" y="144"/>
      <point x="212" y="69"/>
      <point x="299" y="69" type="curve" smooth="yes"/>
      <point x="357" y="69"/>
      <point x="408" y="96"/>
      <point x="408" y="154" type="curve" smooth="yes"/>
      <point x="408" y="191"/>
      <point x="388" y="212"/>
      <point x="358" y="212" type="curve" smooth="yes"/>
      <point x="351" y="212"/>
      <point x="341" y="209"/>
      <point x="336" y="205" type="curve"/>
      <point x="335" y="199"/>
      <point x="334" y="191"/>
      <point x="334" y="188" type="curve"/>
      <point x="308" y="188" type="line"/>
      <point x="322" y="344"/>
      <point x="397" y="428"/>
      <point x="547" y="428" type="curve" smooth="yes"/>
      <point x="577" y="428"/>
      <point x="626" y="426"/>
    </contour>
    <contour>
      <point x="316" y="422" type="curve"/>
      <point x="312" y="422"/>
      <point x="226" y="396"/>
      <point x="226" y="396" type="curve"/>
      <point x="95" y="396"/>
      <point x="55" y="305"/>
      <point x="55" y="213" type="curve" smooth="yes"/>
      <point x="55" y="134"/>
      <point x="81" y="73"/>
      <point x="132" y="29" type="curve"/>
      <point x="132" y="0" type="line"/>
      <point x="68" y="32"/>
      <point x="26" y="117"/>
      <point x="26" y="216" type="curve" smooth="yes"/>
      <point x="26" y="345"/>
      <point x="97" y="423"/>
      <point x="233" y="423" type="curve" smooth="yes"/>
      <point x="242" y="423"/>
      <point x="294" y="424"/>
    </contour>
  </outline>
</glyph>
<glyph name=".notdef" format="1">
  <advance width="631"/>
  <outline>
    <contour>
      <point x="50" y="-92.6602" type="line"/>
      <point x="50" y="754.34" type="line"/>
      <point x="581" y="754.34" type="line"/>
      <point x="581" y="-92.6602" type="line"/>
    </contour>
    <contour>
      <point x="266.397" y="63.2725" type="curve" smooth="yes"/>
      <point x="266.397" y="78.4473"/>
      <point x="278.968" y="91.0176"/>
      <point x="294.143" y="91.0176" type="curve" smooth="yes"/>
      <point x="309.317" y="91.0176"/>
      <point x="321.888" y="78.4473"/>
      <point x="321.888" y="63.2725" type="curve" smooth="yes"/>
      <point x="321.888" y="48.0977"/>
      <point x="309.317" y="35.5273"/>
      <point x="294.143" y="35.5273" type="curve" smooth="yes"/>
      <point x="278.968" y="35.5273"/>
      <point x="266.397" y="48.0977"/>
    </contour>
    <contour>
      <point x="88.3799" y="718.34" type="line"/>
      <point x="88.3799" y="-55.5498" type="line"/>
      <point x="541.62" y="-55.5498" type="line"/>
      <point x="541.62" y="718.34" type="line"/>
    </contour>
    <contour>
      <point x="168.906" y="498.894" type="line"/>
      <point x="192.791" y="529.146"/>
      <point x="237.149" y="573.34"/>
      <point x="310.475" y="573.34" type="curve" smooth="yes"/>
      <point x="406.15" y="573.34"/>
      <point x="461.629" y="509.014"/>
      <point x="463.165" y="423.806" type="curve" smooth="yes"/>
      <point x="465" y="322"/>
      <point x="387.732" y="270.116"/>
      <point x="316.428" y="268.12" type="curve"/>
      <point x="316.428" y="122" type="line"/>
      <point x="270.492" y="122" type="line"/>
      <point x="270.492" y="309.044" type="line"/>
      <point x="363.296" y="310.459"/>
      <point x="417.23" y="338.678"/>
      <point x="417.23" y="418.65" type="curve" smooth="yes"/>
      <point x="417.23" y="479.219"/>
      <point x="377.355" y="533.04"/>
      <point x="308.475" y="533.04" type="curve" smooth="yes"/>
      <point x="244.473" y="533.04"/>
      <point x="216.848" y="495.115"/>
      <point x="199.547" y="472.045" type="curve"/>
    </contour>
  </outline>
</glyph>
<glyph name="mooniak" format="1">
  <advance width="952"/>
  <outline>
    <contour>
      <point x="692.6" y="656" type="curve" smooth="yes"/>
      <point x="692.6" y="719.2"/>
      <point x="743.8" y="770.4"/>
      <point x="807" y="770.4" type="curve" smooth="yes"/>
      <point x="870.2" y="770.4"/>
      <point x="921.4" y="719.2"/>
      <point x="921.4" y="656" type="curve" smooth="yes"/>
      <point x="921.4" y="592.8"/>
      <point x="870.2" y="541.6"/>
      <point x="807" y="541.6" type="curve" smooth="yes"/>
      <point x="743.8" y="541.6"/>
      <point x="692.6" y="592.8"/>
    </contour>
    <contour>
      <point x="30.4004" y="371" type="curve" smooth="yes"/>
      <point x="30.4004" y="544.8"/>
      <point x="171.2" y="685.6"/>
      <point x="345" y="685.6" type="curve" smooth="yes"/>
      <point x="518.8" y="685.6"/>
      <point x="659.6" y="544.8"/>
      <point x="659.6" y="371" type="curve" smooth="yes"/>
      <point x="659.6" y="197.2"/>
      <point x="518.8" y="56.4004"/>
      <point x="345" y="56.4004" type="curve" smooth="yes"/>
      <point x="171.2" y="56.4004"/>
      <point x="30.4004" y="197.2"/>
    </contour>
  </outline>
</glyph>
<glyph name="si_Ba.reph" format="1">
  <advance width="604"/>
  <outline>
    <contour>
      <point x="39" y="0" type="move" name="_cursive"/>
    </contour>
    <component base="si_Reph" xOffset="292" yOffset="109"/>
    <component base="si_Ba"/>
  </outline>
</glyph>
<glyph name="si_BhUu" format="1">
  <advance width="654"/>
  <outline>
    <contour>
      <point x="364" y="-126" type="curve" smooth="yes"/>
      <point x="364" y="-91"/>
      <point x="396" y="-70"/>
      <point x="427" y="-65" type="curve"/>
      <point x="373" y="-38" type="line"/>
      <point x="458" y="-14" type="line"/>
      <point x="367" y="1" type="line"/>
      <point x="414" y="13" type="line"/>
      <point x="531" y="-7" type="line"/>
      <point x="429" y="-43" type="line"/>
      <point x="486" y="-74" type="line"/>
      <point x="459" y="-81"/>
      <point x="403" y="-83"/>
      <point x="403" y="-112" type="curve" smooth="yes"/>
      <point x="403" y="-142"/>
      <point x="444" y="-151"/>
      <point x="485" y="-151" type="curve" smooth="yes"/>
      <point x="538" y="-151"/>
      <point x="583" y="-128"/>
      <point x="583" y="-80" type="curve" smooth="yes"/>
      <point x="583" y="-75"/>
      <point x="582" y="-68"/>
      <point x="577" y="-58" type="curve"/>
      <point x="609" y="-58" type="line"/>
      <point x="613" y="-70"/>
      <point x="613" y="-81"/>
      <point x="613" y="-92" type="curve" smooth="yes"/>
      <point x="613" y="-157"/>
      <point x="563" y="-200"/>
      <point x="483" y="-200" type="curve" smooth="yes"/>
      <point x="426" y="-200"/>
      <point x="364" y="-183"/>
    </contour>
    <component base="si_Bha"/>
  </outline>
</glyph>
<glyph name="si_CU" format="1">
  <advance width="583"/>
  <outline>
    <contour>
      <point x="68" y="-139" type="curve" smooth="yes"/>
      <point x="68" y="-88"/>
      <point x="114" y="-49"/>
      <point x="168" y="-49" type="curve" smooth="yes"/>
      <point x="209" y="-49"/>
      <point x="245" y="-72"/>
      <point x="260" y="-107" type="curve"/>
      <point x="230" y="-119" type="line"/>
      <point x="223" y="-99"/>
      <point x="200" y="-78"/>
      <point x="168" y="-78" type="curve" smooth="yes"/>
      <point x="132" y="-78"/>
      <point x="102" y="-104"/>
      <point x="102" y="-139" type="curve" smooth="yes"/>
      <point x="102" y="-167"/>
      <point x="124" y="-194"/>
      <point x="188" y="-194" type="curve" smooth="yes"/>
      <point x="521" y="-194" type="line"/>
      <point x="521" y="125" type="line"/>
      <point x="553" y="214" type="line"/>
      <point x="553" y="-229" type="line"/>
      <point x="172" y="-229" type="line" smooth="yes"/>
      <point x="105" y="-229"/>
      <point x="68" y="-182"/>
    </contour>
    <component base="si_Ca"/>
  </outline>
</glyph>
<glyph name="si_ChUu" format="1">
  <advance width="583"/>
  <outline>
    <contour>
      <point x="38" y="-135" type="curve" smooth="yes"/>
      <point x="38" y="-78"/>
      <point x="86" y="-39"/>
      <point x="138" y="-39" type="curve" smooth="yes"/>
      <point x="179" y="-39"/>
      <point x="210" y="-54"/>
      <point x="232" y="-89" type="curve"/>
      <point x="203" y="-100" type="line"/>
      <point x="191" y="-81"/>
      <point x="171" y="-66"/>
      <point x="143" y="-66" type="curve" smooth="yes"/>
      <point x="105" y="-66"/>
      <point x="73" y="-90"/>
      <point x="73" y="-126" type="curve" smooth="yes"/>
      <point x="73" y="-162"/>
      <point x="104" y="-187"/>
      <point x="146" y="-187" type="curve" smooth="yes"/>
      <point x="228" y="-187"/>
      <point x="293" y="-114"/>
      <point x="386" y="-114" type="curve" smooth="yes"/>
      <point x="433" y="-114"/>
      <point x="472" y="-135"/>
      <point x="496" y="-164" type="curve"/>
      <point x="496" y="138" type="line"/>
      <point x="528" y="196" type="line"/>
      <point x="528" y="-226" type="line"/>
      <point x="506" y="-226" type="line"/>
      <point x="491" y="-191"/>
      <point x="452" y="-141"/>
      <point x="389" y="-141" type="curve" smooth="yes"/>
      <point x="300" y="-141"/>
      <point x="242" y="-231"/>
      <point x="146" y="-231" type="curve" smooth="yes"/>
      <point x="92" y="-231"/>
      <point x="38" y="-201"/>
    </contour>
    <component base="si_Cha"/>
  </outline>
</glyph>
<glyph name="si_DVUu" format="1">
  <advance width="671"/>
  <outline>
    <contour>
      <point x="135" y="-135" type="curve" smooth="yes"/>
      <point x="135" y="-78"/>
      <point x="182" y="-39"/>
      <point x="234" y="-39" type="curve" smooth="yes"/>
      <point x="275" y="-39"/>
      <point x="307" y="-54"/>
      <point x="329" y="-89" type="curve"/>
      <point x="300" y="-100" type="line"/>
      <point x="288" y="-81"/>
      <point x="267" y="-66"/>
      <point x="239" y="-66" type="curve" smooth="yes"/>
      <point x="201" y="-66"/>
      <point x="170" y="-90"/>
      <point x="170" y="-126" type="curve" smooth="yes"/>
      <point x="170" y="-162"/>
      <point x="200" y="-187"/>
      <point x="242" y="-187" type="curve" smooth="yes"/>
      <point x="324" y="-187"/>
      <point x="389" y="-114"/>
      <point x="482" y="-114" type="curve" smooth="yes"/>
      <point x="529" y="-114"/>
      <point x="560" y="-131"/>
      <point x="583" y="-156" type="curve"/>
      <point x="583" y="148" type="line"/>
      <point x="615" y="207" type="line"/>
      <point x="615" y="-226" type="line"/>
      <point x="593" y="-226" type="line"/>
      <point x="578" y="-191"/>
      <point x="548" y="-141"/>
      <point x="485" y="-141" type="curve" smooth="yes"/>
      <point x="396" y="-141"/>
      <point x="339" y="-231"/>
      <point x="243" y="-231" type="curve" smooth="yes"/>
      <point x="189" y="-231"/>
      <point x="135" y="-201"/>
    </contour>
    <contour>
      <point x="122" y="161" type="curve" smooth="yes"/>
      <point x="122" y="244"/>
      <point x="185" y="297"/>
      <point x="284" y="297" type="curve" smooth="yes"/>
      <point x="344" y="297" type="line"/>
      <point x="344" y="299"/>
      <point x="344" y="299"/>
      <point x="344" y="301" type="curve" smooth="yes"/>
      <point x="344" y="354"/>
      <point x="310" y="386"/>
      <point x="274" y="386" type="curve" smooth="yes"/>
      <point x="230" y="386"/>
      <point x="223" y="363"/>
      <point x="217" y="347" type="curve" smooth="yes"/>
      <point x="210" y="328"/>
      <point x="202" y="315"/>
      <point x="181" y="315" type="curve" smooth="yes"/>
      <point x="165" y="315"/>
      <point x="145" y="326"/>
      <point x="145" y="352" type="curve" smooth="yes"/>
      <point x="145" y="394"/>
      <point x="193" y="422"/>
      <point x="247" y="422" type="curve" smooth="yes"/>
      <point x="333" y="422"/>
      <point x="375" y="367"/>
      <point x="375" y="283" type="curve" smooth="yes"/>
      <point x="375" y="280"/>
      <point x="375" y="276"/>
      <point x="375" y="273" type="curve"/>
      <point x="287" y="273" type="line" smooth="yes"/>
      <point x="215" y="273"/>
      <point x="156" y="239"/>
      <point x="156" y="176" type="curve" smooth="yes"/>
      <point x="156" y="92"/>
      <point x="266" y="69"/>
      <point x="354" y="69" type="curve" smooth="yes"/>
      <point x="503" y="69"/>
      <point x="592" y="154"/>
      <point x="592" y="293" type="curve" smooth="yes"/>
      <point x="592" y="432"/>
      <point x="490" y="540"/>
      <point x="359" y="540" type="curve" smooth="yes"/>
      <point x="282" y="540"/>
      <point x="221" y="513"/>
      <point x="177" y="459" type="curve"/>
      <point x="146" y="459" type="line"/>
      <point x="194" y="527"/>
      <point x="263" y="563"/>
      <point x="359" y="563" type="curve" smooth="yes"/>
      <point x="515" y="563"/>
      <point x="625" y="433"/>
      <point x="625" y="268" type="curve" smooth="yes"/>
      <point x="625" y="112"/>
      <point x="530" y="0"/>
      <point x="351" y="0" type="curve" smooth="yes"/>
      <point x="233" y="0"/>
      <point x="122" y="45"/>
    </contour>
    <contour>
      <point x="26" y="216" type="curve" smooth="yes"/>
      <point x="26" y="345"/>
      <point x="97" y="423"/>
      <point x="233" y="423" type="curve" smooth="yes"/>
      <point x="242" y="423"/>
      <point x="265" y="423"/>
      <point x="286" y="417" type="curve"/>
      <point x="265" y="406"/>
      <point x="190" y="397"/>
      <point x="173" y="391" type="curve"/>
      <point x="100" y="373"/>
      <point x="55" y="312"/>
      <point x="55" y="213" type="curve" smooth="yes"/>
      <point x="55" y="134"/>
      <point x="81" y="73"/>
      <point x="132" y="29" type="curve"/>
      <point x="132" y="0" type="line"/>
      <point x="68" y="32"/>
      <point x="26" y="117"/>
    </contour>
  </outline>
</glyph>
<glyph name="si_DVa.reph" format="1">
  <advance width="671"/>
  <outline>
    <contour>
      <point x="337" y="604" type="curve" smooth="yes"/>
      <point x="337" y="583"/>
      <point x="356" y="568"/>
      <point x="377" y="568" type="curve" smooth="yes"/>
      <point x="398" y="568"/>
      <point x="417" y="583"/>
      <point x="417" y="604" type="curve" smooth="yes"/>
      <point x="417" y="625"/>
      <point x="398" y="641"/>
      <point x="377" y="641" type="curve" smooth="yes"/>
      <point x="356" y="641"/>
      <point x="337" y="625"/>
    </contour>
    <contour>
      <point x="237" y="623" type="curve" smooth="yes"/>
      <point x="237" y="685"/>
      <point x="294" y="722"/>
      <point x="374" y="722" type="curve" smooth="yes"/>
      <point x="449" y="722"/>
      <point x="512" y="679"/>
      <point x="512" y="610" type="curve" smooth="yes"/>
      <point x="512" y="587"/>
      <point x="504" y="566"/>
      <point x="487" y="547" type="curve"/>
      <point x="454" y="547" type="line"/>
      <point x="467" y="559"/>
      <point x="483" y="583"/>
      <point x="483" y="609" type="curve" smooth="yes"/>
      <point x="483" y="665"/>
      <point x="433" y="695"/>
      <point x="373" y="695" type="curve" smooth="yes"/>
      <point x="321" y="695"/>
      <point x="268" y="675"/>
      <point x="268" y="623" type="curve" smooth="yes"/>
      <point x="268" y="585"/>
      <point x="308" y="566"/>
      <point x="330" y="564" type="curve"/>
      <point x="322" y="570"/>
      <point x="311" y="584"/>
      <point x="311" y="605" type="curve" smooth="yes"/>
      <point x="311" y="639"/>
      <point x="341" y="664"/>
      <point x="376" y="664" type="curve" smooth="yes"/>
      <point x="416" y="664"/>
      <point x="444" y="637"/>
      <point x="444" y="603" type="curve" smooth="yes"/>
      <point x="444" y="565"/>
      <point x="410" y="540"/>
      <point x="353" y="540" type="curve" smooth="yes"/>
      <point x="295" y="540"/>
      <point x="237" y="568"/>
    </contour>
    <contour>
      <point x="26" y="216" type="curve" smooth="yes"/>
      <point x="26" y="345"/>
      <point x="97" y="423"/>
      <point x="233" y="423" type="curve" smooth="yes"/>
      <point x="242" y="423"/>
      <point x="265" y="423"/>
      <point x="286" y="417" type="curve"/>
      <point x="265" y="406"/>
      <point x="190" y="397"/>
      <point x="173" y="391" type="curve"/>
      <point x="100" y="373"/>
      <point x="55" y="312"/>
      <point x="55" y="213" type="curve" smooth="yes"/>
      <point x="55" y="134"/>
      <point x="81" y="73"/>
      <point x="132" y="29" type="curve"/>
      <point x="132" y="0" type="line"/>
      <point x="68" y="32"/>
      <point x="26" y="117"/>
    </contour>
    <component base="si_Va" xOffset="90"/>
  </outline>
</glyph>
<glyph name="si_Dda.reph" format="1">
  <advance width="631"/>
  <outline>
    <contour>
      <point x="42" y="0" type="move" name="_cursive"/>
    </contour>
    <contour>
      <point x="271" y="607" type="curve" smooth="yes"/>
      <point x="271" y="586"/>
      <point x="290" y="571"/>
      <point x="311" y="571" type="curve" smooth="yes"/>
      <point x="332" y="571"/>
      <point x="351" y="586"/>
      <point x="351" y="607" type="curve" smooth="yes"/>
      <point x="351" y="628"/>
      <point x="332" y="644"/>
      <point x="311" y="644" type="curve" smooth="yes"/>
      <point x="290" y="644"/>
      <point x="271" y="628"/>
    </contour>
    <contour>
      <point x="171" y="626" type="curve" smooth="yes"/>
      <point x="171" y="688"/>
      <point x="228" y="725"/>
      <point x="308" y="725" type="curve" smooth="yes"/>
      <point x="383" y="725"/>
      <point x="445" y="682"/>
      <point x="445" y="613" type="curve" smooth="yes"/>
      <point x="445" y="590"/>
      <point x="438" y="569"/>
      <point x="421" y="550" type="curve"/>
      <point x="389" y="550" type="line"/>
      <point x="402" y="562"/>
      <point x="416" y="586"/>
      <point x="416" y="612" type="curve" smooth="yes"/>
      <point x="416" y="668"/>
      <point x="367" y="698"/>
      <point x="307" y="698" type="curve" smooth="yes"/>
      <point x="255" y="698"/>
      <point x="201" y="678"/>
      <point x="201" y="626" type="curve" smooth="yes"/>
      <point x="201" y="588"/>
      <point x="243" y="569"/>
      <point x="265" y="567" type="curve"/>
      <point x="257" y="573"/>
      <point x="244" y="587"/>
      <point x="244" y="608" type="curve" smooth="yes"/>
      <point x="244" y="642"/>
      <point x="275" y="667"/>
      <point x="310" y="667" type="curve" smooth="yes"/>
      <point x="350" y="667"/>
      <point x="377" y="640"/>
      <point x="377" y="606" type="curve" smooth="yes"/>
      <point x="377" y="568"/>
      <point x="343" y="543"/>
      <point x="286" y="543" type="curve" smooth="yes"/>
      <point x="228" y="543"/>
      <point x="171" y="571"/>
    </contour>
    <component base="si_Dda"/>
  </outline>
</glyph>
<glyph name="si_Dda.touch" format="1">
  <advance width="631"/>
  <outline>
    <contour>
      <point x="585" y="0" type="move" name="cursive"/>
    </contour>
    <component base="si_Dda"/>
  </outline>
</glyph>
<glyph name="si_Fa.reph" format="1">
  <advance width="592"/>
  <outline>
    <contour>
      <point x="43" y="0" type="move" name="_cursive"/>
    </contour>
    <contour>
      <point x="253" y="499" type="curve" smooth="yes"/>
      <point x="253" y="478"/>
      <point x="272" y="463"/>
      <point x="293" y="463" type="curve" smooth="yes"/>
      <point x="314" y="463"/>
      <point x="333" y="478"/>
      <point x="333" y="499" type="curve" smooth="yes"/>
      <point x="333" y="520"/>
      <point x="314" y="535"/>
      <point x="293" y="535" type="curve" smooth="yes"/>
      <point x="272" y="535"/>
      <point x="253" y="520"/>
    </contour>
    <contour>
      <point x="153" y="518" type="curve" smooth="yes"/>
      <point x="153" y="580"/>
      <point x="210" y="616"/>
      <point x="290" y="616" type="curve" smooth="yes"/>
      <point x="365" y="616"/>
      <point x="428" y="574"/>
      <point x="428" y="505" type="curve" smooth="yes"/>
      <point x="428" y="482"/>
      <point x="420" y="460"/>
      <point x="403" y="441" type="curve"/>
      <point x="370" y="441" type="line"/>
      <point x="383" y="453"/>
      <point x="398" y="478"/>
      <point x="398" y="504" type="curve" smooth="yes"/>
      <point x="398" y="560"/>
      <point x="349" y="590"/>
      <point x="289" y="590" type="curve" smooth="yes"/>
      <point x="237" y="590"/>
      <point x="184" y="570"/>
      <point x="184" y="518" type="curve" smooth="yes"/>
      <point x="184" y="480"/>
      <point x="224" y="461"/>
      <point x="246" y="459" type="curve"/>
      <point x="238" y="465"/>
      <point x="227" y="479"/>
      <point x="227" y="500" type="curve" smooth="yes"/>
      <point x="227" y="534"/>
      <point x="257" y="559"/>
      <point x="292" y="559" type="curve" smooth="yes"/>
      <point x="332" y="559"/>
      <point x="359" y="532"/>
      <point x="359" y="498" type="curve" smooth="yes"/>
      <point x="359" y="460"/>
      <point x="326" y="435"/>
      <point x="269" y="435" type="curve" smooth="yes"/>
      <point x="211" y="435"/>
      <point x="153" y="463"/>
    </contour>
    <component base="si_Fa"/>
  </outline>
</glyph>
<glyph name="si_GDha.reph" format="1">
  <advance width="919"/>
  <outline>
    <contour>
      <point x="568" y="607" type="curve" smooth="yes"/>
      <point x="568" y="586"/>
      <point x="586" y="571"/>
      <point x="607" y="571" type="curve" smooth="yes"/>
      <point x="628" y="571"/>
      <point x="647" y="586"/>
      <point x="647" y="607" type="curve" smooth="yes"/>
      <point x="647" y="628"/>
      <point x="628" y="644"/>
      <point x="607" y="644" type="curve" smooth="yes"/>
      <point x="586" y="644"/>
      <point x="568" y="628"/>
    </contour>
    <contour>
      <point x="468" y="626" type="curve" smooth="yes"/>
      <point x="468" y="688"/>
      <point x="525" y="725"/>
      <point x="605" y="725" type="curve" smooth="yes"/>
      <point x="680" y="725"/>
      <point x="741" y="682"/>
      <point x="741" y="613" type="curve" smooth="yes"/>
      <point x="741" y="590"/>
      <point x="735" y="569"/>
      <point x="718" y="550" type="curve"/>
      <point x="685" y="550" type="line"/>
      <point x="698" y="562"/>
      <point x="712" y="586"/>
      <point x="712" y="612" type="curve" smooth="yes"/>
      <point x="712" y="668"/>
      <point x="663" y="698"/>
      <point x="603" y="698" type="curve" smooth="yes"/>
      <point x="551" y="698"/>
      <point x="498" y="678"/>
      <point x="498" y="626" type="curve" smooth="yes"/>
      <point x="498" y="588"/>
      <point x="539" y="569"/>
      <point x="561" y="567" type="curve"/>
      <point x="553" y="573"/>
      <point x="540" y="587"/>
      <point x="540" y="608" type="curve" smooth="yes"/>
      <point x="540" y="642"/>
      <point x="572" y="667"/>
      <point x="607" y="667" type="curve" smooth="yes"/>
      <point x="647" y="667"/>
      <point x="673" y="640"/>
      <point x="673" y="606" type="curve" smooth="yes"/>
      <point x="673" y="568"/>
      <point x="640" y="543"/>
      <point x="583" y="543" type="curve" smooth="yes"/>
      <point x="525" y="543"/>
      <point x="468" y="571"/>
    </contour>
    <contour>
      <point x="33" y="202" type="curve" smooth="yes"/>
      <point x="33" y="322"/>
      <point x="107" y="422"/>
      <point x="215" y="422" type="curve" smooth="yes"/>
      <point x="219" y="422"/>
      <point x="224" y="421"/>
      <point x="228" y="421" type="curve"/>
      <point x="228" y="398" type="line"/>
      <point x="225" y="398"/>
      <point x="220" y="398"/>
      <point x="217" y="398" type="curve" smooth="yes"/>
      <point x="133" y="398"/>
      <point x="67" y="325"/>
      <point x="67" y="225" type="curve" smooth="yes"/>
      <point x="67" y="144"/>
      <point x="114" y="69"/>
      <point x="201" y="69" type="curve" smooth="yes"/>
      <point x="259" y="69"/>
      <point x="311" y="96"/>
      <point x="311" y="154" type="curve" smooth="yes"/>
      <point x="311" y="191"/>
      <point x="291" y="212"/>
      <point x="261" y="212" type="curve" smooth="yes"/>
      <point x="254" y="212"/>
      <point x="245" y="210"/>
      <point x="238" y="205" type="curve"/>
      <point x="237" y="199"/>
      <point x="236" y="191"/>
      <point x="236" y="188" type="curve"/>
      <point x="211" y="188" type="line"/>
      <point x="221" y="310"/>
      <point x="281" y="422"/>
      <point x="400" y="422" type="curve" smooth="yes"/>
      <point x="456" y="422"/>
      <point x="481" y="411"/>
      <point x="516" y="389" type="curve"/>
      <point x="503" y="382"/>
      <point x="483" y="386"/>
      <point x="471" y="383" type="curve"/>
      <point x="448" y="393"/>
      <point x="421" y="395"/>
      <point x="404" y="395" type="curve" smooth="yes"/>
      <point x="301" y="395"/>
      <point x="260" y="312"/>
      <point x="242" y="230" type="curve"/>
      <point x="250" y="234"/>
      <point x="257" y="235"/>
      <point x="264" y="235" type="curve" smooth="yes"/>
      <point x="311" y="235"/>
      <point x="344" y="197"/>
      <point x="344" y="133" type="curve" smooth="yes"/>
      <point x="344" y="55"/>
      <point x="288" y="-2"/>
      <point x="203" y="-2" type="curve" smooth="yes"/>
      <point x="95" y="-2"/>
      <point x="33" y="94"/>
    </contour>
    <component base="si_Dha" xOffset="300"/>
  </outline>
</glyph>
<glyph name="si_GRIi" format="1">
  <advance width="621"/>
  <outline>
    <contour>
      <point x="55" y="-43" type="curve"/>
      <point x="81" y="-43" type="line"/>
      <point x="115" y="-116"/>
      <point x="183" y="-153"/>
      <point x="286" y="-153" type="curve" smooth="yes"/>
      <point x="426" y="-153"/>
      <point x="541" y="-88"/>
      <point x="541" y="49" type="curve" smooth="yes"/>
      <point x="541" y="70"/>
      <point x="536" y="91"/>
      <point x="529" y="100" type="curve"/>
      <point x="542" y="130" type="line"/>
      <point x="560" y="104"/>
      <point x="568" y="73"/>
      <point x="568" y="37" type="curve" smooth="yes"/>
      <point x="568" y="-121"/>
      <point x="443" y="-214"/>
      <point x="302" y="-214" type="curve" smooth="yes"/>
      <point x="172" y="-214"/>
      <point x="91" y="-149"/>
    </contour>
    <component base="si_GIi"/>
  </outline>
</glyph>
<glyph name="si_Ga.reph" format="1">
  <advance width="621"/>
  <outline>
    <contour>
      <point x="56" y="0" type="move" name="_cursive"/>
    </contour>
    <component base="si_Reph" xOffset="370" yOffset="-25"/>
    <component base="si_Ga"/>
  </outline>
</glyph>
<glyph name="si_GhU" format="1">
  <advance width="661"/>
  <outline>
    <contour>
      <point x="64" y="-139" type="curve" smooth="yes"/>
      <point x="64" y="-88"/>
      <point x="110" y="-49"/>
      <point x="164" y="-49" type="curve" smooth="yes"/>
      <point x="205" y="-49"/>
      <point x="241" y="-72"/>
      <point x="256" y="-107" type="curve"/>
      <point x="227" y="-119" type="line"/>
      <point x="220" y="-99"/>
      <point x="196" y="-78"/>
      <point x="164" y="-78" type="curve" smooth="yes"/>
      <point x="128" y="-78"/>
      <point x="98" y="-104"/>
      <point x="98" y="-139" type="curve" smooth="yes"/>
      <point x="98" y="-167"/>
      <point x="121" y="-194"/>
      <point x="185" y="-194" type="curve" smooth="yes"/>
      <point x="569" y="-194" type="line"/>
      <point x="569" y="125" type="line"/>
      <point x="602" y="214" type="line"/>
      <point x="602" y="-229" type="line"/>
      <point x="168" y="-229" type="line" smooth="yes"/>
      <point x="101" y="-229"/>
      <point x="64" y="-182"/>
    </contour>
    <component base="si_Gha"/>
  </outline>
</glyph>
<glyph name="si_Gha.reph" format="1">
  <advance width="661"/>
  <outline>
    <contour>
      <point x="54" y="0" type="move" name="_cursive"/>
    </contour>
    <contour>
      <point x="289" y="479" type="curve" smooth="yes"/>
      <point x="289" y="458"/>
      <point x="308" y="443"/>
      <point x="329" y="443" type="curve" smooth="yes"/>
      <point x="350" y="443"/>
      <point x="369" y="458"/>
      <point x="369" y="479" type="curve" smooth="yes"/>
      <point x="369" y="500"/>
      <point x="350" y="516"/>
      <point x="329" y="516" type="curve" smooth="yes"/>
      <point x="308" y="516"/>
      <point x="289" y="500"/>
    </contour>
    <contour>
      <point x="189" y="498" type="curve" smooth="yes"/>
      <point x="189" y="560"/>
      <point x="246" y="597"/>
      <point x="326" y="597" type="curve" smooth="yes"/>
      <point x="401" y="597"/>
      <point x="464" y="554"/>
      <point x="464" y="485" type="curve" smooth="yes"/>
      <point x="464" y="462"/>
      <point x="456" y="441"/>
      <point x="439" y="422" type="curve"/>
      <point x="406" y="422" type="line"/>
      <point x="419" y="434"/>
      <point x="435" y="458"/>
      <point x="435" y="484" type="curve" smooth="yes"/>
      <point x="435" y="540"/>
      <point x="385" y="570"/>
      <point x="325" y="570" type="curve" smooth="yes"/>
      <point x="273" y="570"/>
      <point x="220" y="550"/>
      <point x="220" y="498" type="curve" smooth="yes"/>
      <point x="220" y="460"/>
      <point x="261" y="441"/>
      <point x="283" y="439" type="curve"/>
      <point x="275" y="445"/>
      <point x="263" y="459"/>
      <point x="263" y="480" type="curve" smooth="yes"/>
      <point x="263" y="514"/>
      <point x="293" y="539"/>
      <point x="328" y="539" type="curve" smooth="yes"/>
      <point x="368" y="539"/>
      <point x="396" y="513"/>
      <point x="396" y="479" type="curve" smooth="yes"/>
      <point x="396" y="441"/>
      <point x="362" y="415"/>
      <point x="305" y="415" type="curve" smooth="yes"/>
      <point x="247" y="415"/>
      <point x="189" y="443"/>
    </contour>
    <component base="si_Gha"/>
  </outline>
</glyph>
<glyph name="si_Ja.reph" format="1">
  <advance width="583"/>
  <outline>
    <contour>
      <point x="46" y="0" type="move" name="_cursive"/>
    </contour>
    <contour>
      <point x="197" y="479" type="curve" smooth="yes"/>
      <point x="197" y="458"/>
      <point x="216" y="443"/>
      <point x="237" y="443" type="curve" smooth="yes"/>
      <point x="258" y="443"/>
      <point x="277" y="458"/>
      <point x="277" y="479" type="curve" smooth="yes"/>
      <point x="277" y="500"/>
      <point x="258" y="516"/>
      <point x="237" y="516" type="curve" smooth="yes"/>
      <point x="216" y="516"/>
      <point x="197" y="500"/>
    </contour>
    <contour>
      <point x="98" y="498" type="curve" smooth="yes"/>
      <point x="98" y="560"/>
      <point x="154" y="597"/>
      <point x="234" y="597" type="curve" smooth="yes"/>
      <point x="309" y="597"/>
      <point x="372" y="554"/>
      <point x="372" y="485" type="curve" smooth="yes"/>
      <point x="372" y="462"/>
      <point x="365" y="441"/>
      <point x="348" y="422" type="curve"/>
      <point x="314" y="422" type="line"/>
      <point x="327" y="434"/>
      <point x="343" y="458"/>
      <point x="343" y="484" type="curve" smooth="yes"/>
      <point x="343" y="540"/>
      <point x="293" y="570"/>
      <point x="233" y="570" type="curve" smooth="yes"/>
      <point x="181" y="570"/>
      <point x="129" y="550"/>
      <point x="129" y="498" type="curve" smooth="yes"/>
      <point x="129" y="460"/>
      <point x="169" y="441"/>
      <point x="191" y="439" type="curve"/>
      <point x="183" y="445"/>
      <point x="171" y="459"/>
      <point x="171" y="480" type="curve" smooth="yes"/>
      <point x="171" y="514"/>
      <point x="201" y="539"/>
      <point x="236" y="539" type="curve" smooth="yes"/>
      <point x="276" y="539"/>
      <point x="304" y="513"/>
      <point x="304" y="479" type="curve" smooth="yes"/>
      <point x="304" y="441"/>
      <point x="270" y="415"/>
      <point x="213" y="415" type="curve" smooth="yes"/>
      <point x="155" y="415"/>
      <point x="98" y="443"/>
    </contour>
    <component base="si_Ja"/>
  </outline>
</glyph>
<glyph name="si_Ja.touch" format="1">
  <advance width="583"/>
  <outline>
    <contour>
      <point x="537" y="0" type="move" name="cursive"/>
    </contour>
    <component base="si_Ja"/>
  </outline>
</glyph>
<glyph name="si_JhUu.reph" format="1">
  <advance width="1061"/>
  <outline>
    <contour>
      <point x="69" y="0" type="move" name="_cursive"/>
    </contour>
    <contour>
      <point x="707" y="607" type="curve" smooth="yes"/>
      <point x="707" y="586"/>
      <point x="725" y="571"/>
      <point x="746" y="571" type="curve" smooth="yes"/>
      <point x="767" y="571"/>
      <point x="786" y="586"/>
      <point x="786" y="607" type="curve" smooth="yes"/>
      <point x="786" y="628"/>
      <point x="767" y="644"/>
      <point x="746" y="644" type="curve" smooth="yes"/>
      <point x="725" y="644"/>
      <point x="707" y="628"/>
    </contour>
    <contour>
      <point x="607" y="626" type="curve" smooth="yes"/>
      <point x="607" y="688"/>
      <point x="664" y="725"/>
      <point x="744" y="725" type="curve" smooth="yes"/>
      <point x="819" y="725"/>
      <point x="881" y="682"/>
      <point x="881" y="613" type="curve" smooth="yes"/>
      <point x="881" y="590"/>
      <point x="874" y="569"/>
      <point x="857" y="550" type="curve"/>
      <point x="824" y="550" type="line"/>
      <point x="837" y="562"/>
      <point x="852" y="586"/>
      <point x="852" y="612" type="curve" smooth="yes"/>
      <point x="852" y="668"/>
      <point x="802" y="698"/>
      <point x="742" y="698" type="curve" smooth="yes"/>
      <point x="690" y="698"/>
      <point x="638" y="678"/>
      <point x="638" y="626" type="curve" smooth="yes"/>
      <point x="638" y="588"/>
      <point x="678" y="569"/>
      <point x="700" y="567" type="curve"/>
      <point x="692" y="573"/>
      <point x="680" y="587"/>
      <point x="680" y="608" type="curve" smooth="yes"/>
      <point x="680" y="642"/>
      <point x="711" y="667"/>
      <point x="746" y="667" type="curve" smooth="yes"/>
      <point x="786" y="667"/>
      <point x="812" y="640"/>
      <point x="812" y="606" type="curve" smooth="yes"/>
      <point x="812" y="568"/>
      <point x="780" y="543"/>
      <point x="723" y="543" type="curve" smooth="yes"/>
      <point x="665" y="543"/>
      <point x="607" y="571"/>
    </contour>
    <contour>
      <point x="489" y="-135" type="curve" smooth="yes"/>
      <point x="489" y="-78"/>
      <point x="537" y="-39"/>
      <point x="589" y="-39" type="curve" smooth="yes"/>
      <point x="630" y="-39"/>
      <point x="662" y="-54"/>
      <point x="684" y="-89" type="curve"/>
      <point x="654" y="-100" type="line"/>
      <point x="642" y="-81"/>
      <point x="622" y="-66"/>
      <point x="594" y="-66" type="curve" smooth="yes"/>
      <point x="556" y="-66"/>
      <point x="524" y="-90"/>
      <point x="524" y="-126" type="curve" smooth="yes"/>
      <point x="524" y="-162"/>
      <point x="555" y="-187"/>
      <point x="597" y="-187" type="curve" smooth="yes"/>
      <point x="679" y="-187"/>
      <point x="760" y="-114"/>
      <point x="853" y="-114" type="curve" smooth="yes"/>
      <point x="895" y="-114"/>
      <point x="943" y="-133"/>
      <point x="969" y="-164" type="curve"/>
      <point x="969" y="148" type="line"/>
      <point x="1001" y="207" type="line"/>
      <point x="1001" y="-226" type="line"/>
      <point x="979" y="-226" type="line"/>
      <point x="964" y="-191"/>
      <point x="921" y="-141"/>
      <point x="855" y="-141" type="curve" smooth="yes"/>
      <point x="766" y="-141"/>
      <point x="694" y="-231"/>
      <point x="598" y="-231" type="curve" smooth="yes"/>
      <point x="544" y="-231"/>
      <point x="489" y="-201"/>
    </contour>
    <component base="si_Jha"/>
  </outline>
</glyph>
<glyph name="si_Jha.reph" format="1">
  <advance width="1061"/>
  <outline>
    <contour>
      <point x="69" y="0" type="move" name="_cursive"/>
    </contour>
    <contour>
      <point x="707" y="607" type="curve" smooth="yes"/>
      <point x="707" y="586"/>
      <point x="725" y="571"/>
      <point x="746" y="571" type="curve" smooth="yes"/>
      <point x="767" y="571"/>
      <point x="786" y="586"/>
      <point x="786" y="607" type="curve" smooth="yes"/>
      <point x="786" y="628"/>
      <point x="767" y="645"/>
      <point x="746" y="645" type="curve" smooth="yes"/>
      <point x="725" y="645"/>
      <point x="707" y="628"/>
    </contour>
    <contour>
      <point x="607" y="626" type="curve" smooth="yes"/>
      <point x="607" y="688"/>
      <point x="664" y="725"/>
      <point x="744" y="725" type="curve" smooth="yes"/>
      <point x="819" y="725"/>
      <point x="881" y="682"/>
      <point x="881" y="613" type="curve" smooth="yes"/>
      <point x="881" y="590"/>
      <point x="874" y="569"/>
      <point x="857" y="550" type="curve"/>
      <point x="824" y="550" type="line"/>
      <point x="837" y="562"/>
      <point x="852" y="586"/>
      <point x="852" y="612" type="curve" smooth="yes"/>
      <point x="852" y="668"/>
      <point x="802" y="698"/>
      <point x="742" y="698" type="curve" smooth="yes"/>
      <point x="690" y="698"/>
      <point x="638" y="678"/>
      <point x="638" y="626" type="curve" smooth="yes"/>
      <point x="638" y="588"/>
      <point x="678" y="570"/>
      <point x="700" y="568" type="curve"/>
      <point x="692" y="574"/>
      <point x="680" y="587"/>
      <point x="680" y="608" type="curve" smooth="yes"/>
      <point x="680" y="642"/>
      <point x="711" y="667"/>
      <point x="746" y="667" type="curve" smooth="yes"/>
      <point x="786" y="667"/>
      <point x="812" y="640"/>
      <point x="812" y="606" type="curve" smooth="yes"/>
      <point x="812" y="568"/>
      <point x="780" y="543"/>
      <point x="723" y="543" type="curve" smooth="yes"/>
      <point x="665" y="543"/>
      <point x="607" y="571"/>
    </contour>
    <component base="si_Jha"/>
  </outline>
</glyph>
<glyph name="si_Jnya.touch" format="1">
  <advance width="822"/>
  <outline>
    <contour>
      <point x="770" y="0" type="move" name="cursive"/>
    </contour>
    <component base="si_Jnya"/>
  </outline>
</glyph>
<glyph name="si_KSsa.reph" format="1">
  <advance width="1043"/>
  <outline>
    <contour>
      <point x="697" y="499" type="curve" smooth="yes"/>
      <point x="697" y="478"/>
      <point x="716" y="463"/>
      <point x="737" y="463" type="curve" smooth="yes"/>
      <point x="758" y="463"/>
      <point x="777" y="478"/>
      <point x="777" y="499" type="curve" smooth="yes"/>
      <point x="777" y="520"/>
      <point x="758" y="535"/>
      <point x="737" y="535" type="curve" smooth="yes"/>
      <point x="716" y="535"/>
      <point x="697" y="520"/>
    </contour>
    <contour>
      <point x="597" y="518" type="curve" smooth="yes"/>
      <point x="597" y="580"/>
      <point x="654" y="616"/>
      <point x="734" y="616" type="curve" smooth="yes"/>
      <point x="809" y="616"/>
      <point x="872" y="574"/>
      <point x="872" y="505" type="curve" smooth="yes"/>
      <point x="872" y="482"/>
      <point x="864" y="460"/>
      <point x="847" y="441" type="curve"/>
      <point x="814" y="441" type="line"/>
      <point x="827" y="453"/>
      <point x="842" y="478"/>
      <point x="842" y="504" type="curve" smooth="yes"/>
      <point x="842" y="560"/>
      <point x="793" y="590"/>
      <point x="733" y="590" type="curve" smooth="yes"/>
      <point x="681" y="590"/>
      <point x="627" y="570"/>
      <point x="627" y="518" type="curve" smooth="yes"/>
      <point x="627" y="480"/>
      <point x="668" y="461"/>
      <point x="690" y="459" type="curve"/>
      <point x="682" y="465"/>
      <point x="670" y="479"/>
      <point x="670" y="500" type="curve" smooth="yes"/>
      <point x="670" y="534"/>
      <point x="701" y="559"/>
      <point x="736" y="559" type="curve" smooth="yes"/>
      <point x="776" y="559"/>
      <point x="803" y="532"/>
      <point x="803" y="498" type="curve" smooth="yes"/>
      <point x="803" y="460"/>
      <point x="769" y="435"/>
      <point x="712" y="435" type="curve" smooth="yes"/>
      <point x="654" y="435"/>
      <point x="597" y="463"/>
    </contour>
    <contour>
      <point x="68" y="93" type="curve"/>
      <point x="74" y="96"/>
      <point x="80" y="98"/>
      <point x="87" y="98" type="curve" smooth="yes"/>
      <point x="115" y="98"/>
      <point x="138" y="69"/>
      <point x="194" y="69" type="curve" smooth="yes"/>
      <point x="244" y="69"/>
      <point x="274" y="99"/>
      <point x="274" y="158" type="curve" smooth="yes"/>
      <point x="274" y="160"/>
      <point x="274" y="157"/>
      <point x="274" y="159" type="curve"/>
      <point x="300" y="159" type="line"/>
      <point x="300" y="158"/>
      <point x="300" y="159"/>
      <point x="300" y="158" type="curve" smooth="yes"/>
      <point x="300" y="95"/>
      <point x="326" y="69"/>
      <point x="383" y="69" type="curve" smooth="yes"/>
      <point x="444" y="69"/>
      <point x="463" y="120"/>
      <point x="463" y="155" type="curve" smooth="yes"/>
      <point x="463" y="236"/>
      <point x="392" y="284"/>
      <point x="291" y="284" type="curve" smooth="yes"/>
      <point x="235" y="284"/>
      <point x="199" y="276"/>
      <point x="178" y="267" type="curve"/>
      <point x="161" y="252"/>
      <point x="142" y="229"/>
      <point x="126" y="207" type="curve" smooth="yes"/>
      <point x="98" y="167"/>
      <point x="79" y="129"/>
    </contour>
    <contour>
      <point x="21" y="21" type="line"/>
      <point x="29" y="88"/>
      <point x="72" y="180"/>
      <point x="106" y="227" type="curve" smooth="yes"/>
      <point x="131" y="262"/>
      <point x="146" y="275"/>
      <point x="164" y="294" type="curve"/>
      <point x="176" y="307"/>
      <point x="188" y="323"/>
      <point x="188" y="344" type="curve" smooth="yes"/>
      <point x="188" y="365"/>
      <point x="178" y="383"/>
      <point x="154" y="383" type="curve" smooth="yes"/>
      <point x="140" y="383"/>
      <point x="119" y="375"/>
      <point x="113" y="354" type="curve" smooth="yes"/>
      <point x="106" y="332"/>
      <point x="111" y="332"/>
      <point x="104" y="315" type="curve" smooth="yes"/>
      <point x="97" y="297"/>
      <point x="82" y="290"/>
      <point x="67" y="290" type="curve" smooth="yes"/>
      <point x="34" y="290"/>
      <point x="28" y="320"/>
      <point x="28" y="332" type="curve" smooth="yes"/>
      <point x="28" y="385"/>
      <point x="77" y="423"/>
      <point x="133" y="423" type="curve" smooth="yes"/>
      <point x="182" y="423"/>
      <point x="215" y="393"/>
      <point x="215" y="348" type="curve" smooth="yes"/>
      <point x="215" y="343"/>
      <point x="215" y="338"/>
      <point x="214" y="333" type="curve"/>
      <point x="293" y="392"/>
      <point x="409" y="426"/>
      <point x="542" y="426" type="curve" smooth="yes"/>
      <point x="576" y="426"/>
      <point x="609" y="423"/>
      <point x="609" y="423" type="curve"/>
      <point x="528" y="396" type="line"/>
      <point x="528" y="396"/>
      <point x="517" y="396"/>
      <point x="512" y="396" type="curve" smooth="yes"/>
      <point x="369" y="396"/>
      <point x="267" y="342"/>
      <point x="214" y="301" type="curve"/>
      <point x="237" y="307"/>
      <point x="269" y="309"/>
      <point x="295" y="309" type="curve" smooth="yes"/>
      <point x="412" y="309"/>
      <point x="503" y="245"/>
      <point x="503" y="123" type="curve" smooth="yes"/>
      <point x="503" y="66"/>
      <point x="471" y="-1"/>
      <point x="388" y="-1" type="curve" smooth="yes"/>
      <point x="343" y="-1"/>
      <point x="310" y="20"/>
      <point x="289" y="62" type="curve"/>
      <point x="272" y="22"/>
      <point x="240" y="-1"/>
      <point x="199" y="-1" type="curve" smooth="yes"/>
      <point x="114" y="-1"/>
      <point x="117" y="71"/>
      <point x="85" y="71" type="curve" smooth="yes"/>
      <point x="64" y="71"/>
      <point x="49" y="50"/>
      <point x="46" y="11" type="curve"/>
    </contour>
    <component base="si_Ssa" xOffset="436"/>
  </outline>
</glyph>
<glyph name="si_KU.reph" format="1">
  <advance width="728"/>
  <outline>
    <contour>
      <point x="66" y="0" type="move" name="_cursive"/>
    </contour>
    <component base="si_Reph" xOffset="439" yOffset="-29"/>
    <component base="si_KU"/>
  </outline>
</glyph>
<glyph name="si_Ka.reph" format="1">
  <advance width="728"/>
  <outline>
    <contour>
      <point x="66" y="0" type="move" name="_cursive"/>
    </contour>
    <component base="si_Reph" xOffset="420" yOffset="-25"/>
    <component base="si_Ka"/>
  </outline>
</glyph>
<glyph name="si_La.touch" format="1">
  <advance width="654"/>
  <outline>
    <contour>
      <point x="593" y="0" type="move" name="cursive"/>
    </contour>
    <component base="si_La"/>
  </outline>
</glyph>
<glyph name="si_MRI" format="1">
  <advance width="620"/>
  <outline>
    <contour>
      <point x="66" y="549" type="curve" smooth="yes"/>
      <point x="66" y="637"/>
      <point x="198" y="654"/>
      <point x="296" y="654" type="curve" smooth="yes"/>
      <point x="429" y="654"/>
      <point x="541" y="624"/>
      <point x="541" y="541" type="curve" smooth="yes"/>
      <point x="541" y="490"/>
      <point x="488" y="469"/>
      <point x="455" y="463" type="curve"/>
      <point x="406" y="479" type="line"/>
      <point x="441" y="480"/>
      <point x="494" y="494"/>
      <point x="494" y="531" type="curve" smooth="yes"/>
      <point x="494" y="586"/>
      <point x="401" y="597"/>
      <point x="296" y="597" type="curve" smooth="yes"/>
      <point x="222" y="597"/>
      <point x="107" y="592"/>
      <point x="107" y="541" type="curve" smooth="yes"/>
      <point x="107" y="496"/>
      <point x="174" y="496"/>
      <point x="274" y="492" type="curve" smooth="yes"/>
      <point x="337" y="489"/>
      <point x="434" y="487"/>
      <point x="488" y="448" type="curve" smooth="yes"/>
      <point x="536" y="413"/>
      <point x="570" y="348"/>
      <point x="570" y="268" type="curve"/>
      <point x="533" y="289" type="line"/>
      <point x="533" y="331"/>
      <point x="521" y="375"/>
      <point x="494" y="404" type="curve" smooth="yes"/>
      <point x="440" y="462"/>
      <point x="374" y="462"/>
      <point x="275" y="467" type="curve" smooth="yes"/>
      <point x="188" y="472"/>
      <point x="66" y="465"/>
    </contour>
    <contour>
      <point x="258" y="344" type="curve" smooth="yes"/>
      <point x="258" y="318"/>
      <point x="280" y="296"/>
      <point x="306" y="296" type="curve" smooth="yes"/>
      <point x="332" y="296"/>
      <point x="354" y="318"/>
      <point x="354" y="344" type="curve" smooth="yes"/>
      <point x="354" y="370"/>
      <point x="332" y="392"/>
      <point x="306" y="392" type="curve" smooth="yes"/>
      <point x="280" y="392"/>
      <point x="258" y="370"/>
    </contour>
    <contour>
      <point x="32" y="244" type="curve" smooth="yes"/>
      <point x="32" y="331"/>
      <point x="77" y="422"/>
      <point x="152" y="422" type="curve" smooth="yes"/>
      <point x="200" y="422"/>
      <point x="204" y="388"/>
      <point x="204" y="364" type="curve" smooth="yes"/>
      <point x="204" y="338"/>
      <point x="199" y="330"/>
      <point x="199" y="295" type="curve" smooth="yes"/>
      <point x="199" y="241"/>
      <point x="239" y="213"/>
      <point x="293" y="213" type="curve" smooth="yes"/>
      <point x="352" y="213"/>
      <point x="392" y="249"/>
      <point x="392" y="307" type="curve" smooth="yes"/>
      <point x="392" y="334"/>
      <point x="383" y="350"/>
      <point x="378" y="357" type="curve"/>
      <point x="380" y="347"/>
      <point x="380" y="343"/>
      <point x="380" y="335" type="curve" smooth="yes"/>
      <point x="380" y="299"/>
      <point x="353" y="265"/>
      <point x="306" y="265" type="curve" smooth="yes"/>
      <point x="256" y="265"/>
      <point x="228" y="308"/>
      <point x="228" y="343" type="curve" smooth="yes"/>
      <point x="228" y="388"/>
      <point x="264" y="422"/>
      <point x="311" y="422" type="curve" smooth="yes"/>
      <point x="378" y="422"/>
      <point x="421" y="373"/>
      <point x="421" y="299" type="curve" smooth="yes"/>
      <point x="421" y="232"/>
      <point x="366" y="182"/>
      <point x="295" y="182" type="curve" smooth="yes"/>
      <point x="236" y="182"/>
      <point x="169" y="211"/>
      <point x="169" y="288" type="curve" smooth="yes"/>
      <point x="169" y="326"/>
      <point x="176" y="340"/>
      <point x="176" y="370" type="curve" smooth="yes"/>
      <point x="176" y="382"/>
      <point x="171" y="396"/>
      <point x="150" y="396" type="curve" smooth="yes"/>
      <point x="103" y="396"/>
      <point x="66" y="338"/>
      <point x="66" y="261" type="curve" smooth="yes"/>
      <point x="66" y="131"/>
      <point x="169" y="69"/>
      <point x="301" y="69" type="curve" smooth="yes"/>
      <point x="440" y="69"/>
      <point x="533" y="167"/>
      <point x="533" y="291" type="curve"/>
      <point x="543" y="288"/>
      <point x="558" y="273"/>
      <point x="570" y="271" type="curve"/>
      <point x="570" y="109"/>
      <point x="464" y="0"/>
      <point x="303" y="0" type="curve" smooth="yes"/>
      <point x="140" y="0"/>
      <point x="32" y="92"/>
    </contour>
    <contour>
      <point x="55" y="-43" type="curve"/>
      <point x="81" y="-43" type="line"/>
      <point x="115" y="-116"/>
      <point x="183" y="-153"/>
      <point x="286" y="-153" type="curve" smooth="yes"/>
      <point x="426" y="-153"/>
      <point x="539" y="-87"/>
      <point x="539" y="47" type="curve" smooth="yes"/>
      <point x="539" y="71"/>
      <point x="533" y="98"/>
      <point x="521" y="107" type="curve"/>
      <point x="537" y="137" type="line"/>
      <point x="557" y="111"/>
      <point x="568" y="73"/>
      <point x="568" y="37" type="curve" smooth="yes"/>
      <point x="568" y="-121"/>
      <point x="443" y="-214"/>
      <point x="302" y="-214" type="curve" smooth="yes"/>
      <point x="172" y="-214"/>
      <point x="91" y="-149"/>
    </contour>
  </outline>
</glyph>
<glyph name="si_Mba.touch" format="1">
  <advance width="621"/>
  <outline>
    <contour>
      <point x="555" y="0" type="move" name="cursive"/>
    </contour>
    <component base="si_Mba"/>
  </outline>
</glyph>
<glyph name="si_N.halant" format="1">
  <advance width="787"/>
  <outline>
    <contour>
      <point x="593" y="339" type="line"/>
      <point x="593" y="664" type="line"/>
      <point x="646" y="623"/>
      <point x="739" y="618"/>
      <point x="739" y="528" type="curve" smooth="yes"/>
      <point x="739" y="485"/>
      <point x="705" y="456"/>
      <point x="663" y="456" type="curve" smooth="yes"/>
      <point x="648" y="456"/>
      <point x="634" y="459"/>
      <point x="619" y="466" type="curve"/>
      <point x="619" y="322" type="line"/>
    </contour>
    <contour>
      <point x="619" y="490" type="line"/>
      <point x="628" y="485"/>
      <point x="638" y="483"/>
      <point x="651" y="483" type="curve" smooth="yes"/>
      <point x="688" y="483"/>
      <point x="703" y="508"/>
      <point x="703" y="531" type="curve" smooth="yes"/>
      <point x="703" y="572"/>
      <point x="665" y="592"/>
      <point x="619" y="622" type="curve"/>
    </contour>
    <component base="si_Na"/>
  </outline>
</glyph>
<glyph name="si_NDa.reph" format="1">
  <advance width="873"/>
  <outline>
    <contour>
      <point x="623" y="499" type="curve" smooth="yes"/>
      <point x="623" y="478"/>
      <point x="642" y="463"/>
      <point x="663" y="463" type="curve" smooth="yes"/>
      <point x="684" y="463"/>
      <point x="702" y="478"/>
      <point x="702" y="499" type="curve" smooth="yes"/>
      <point x="702" y="520"/>
      <point x="684" y="535"/>
      <point x="663" y="535" type="curve" smooth="yes"/>
      <point x="642" y="535"/>
      <point x="623" y="520"/>
    </contour>
    <contour>
      <point x="523" y="518" type="curve" smooth="yes"/>
      <point x="523" y="580"/>
      <point x="579" y="616"/>
      <point x="659" y="616" type="curve" smooth="yes"/>
      <point x="734" y="616"/>
      <point x="798" y="574"/>
      <point x="798" y="505" type="curve" smooth="yes"/>
      <point x="798" y="482"/>
      <point x="790" y="460"/>
      <point x="773" y="441" type="curve"/>
      <point x="741" y="441" type="line"/>
      <point x="754" y="453"/>
      <point x="768" y="478"/>
      <point x="768" y="504" type="curve" smooth="yes"/>
      <point x="768" y="560"/>
      <point x="719" y="590"/>
      <point x="659" y="590" type="curve" smooth="yes"/>
      <point x="607" y="590"/>
      <point x="554" y="570"/>
      <point x="554" y="518" type="curve" smooth="yes"/>
      <point x="554" y="480"/>
      <point x="595" y="461"/>
      <point x="617" y="459" type="curve"/>
      <point x="609" y="465"/>
      <point x="597" y="479"/>
      <point x="597" y="500" type="curve" smooth="yes"/>
      <point x="597" y="534"/>
      <point x="626" y="559"/>
      <point x="661" y="559" type="curve" smooth="yes"/>
      <point x="701" y="559"/>
      <point x="730" y="532"/>
      <point x="730" y="498" type="curve" smooth="yes"/>
      <point x="730" y="460"/>
      <point x="695" y="435"/>
      <point x="638" y="435" type="curve" smooth="yes"/>
      <point x="580" y="435"/>
      <point x="523" y="463"/>
    </contour>
    <contour>
      <point x="26" y="121" type="curve"/>
      <point x="40" y="115"/>
      <point x="52" y="112"/>
      <point x="62" y="112" type="curve" smooth="yes"/>
      <point x="122" y="112"/>
      <point x="127" y="196"/>
      <point x="202" y="271" type="curve"/>
      <point x="217" y="286"/>
      <point x="221" y="306"/>
      <point x="221" y="319" type="curve" smooth="yes"/>
      <point x="221" y="356"/>
      <point x="205" y="380"/>
      <point x="172" y="380" type="curve" smooth="yes"/>
      <point x="144" y="380"/>
      <point x="132" y="358"/>
      <point x="131" y="337" type="curve" smooth="yes"/>
      <point x="130" y="318"/>
      <point x="122" y="290"/>
      <point x="91" y="290" type="curve" smooth="yes"/>
      <point x="68" y="290"/>
      <point x="54" y="308"/>
      <point x="54" y="333" type="curve" smooth="yes"/>
      <point x="54" y="374"/>
      <point x="87" y="421"/>
      <point x="150" y="421" type="curve" smooth="yes"/>
      <point x="218" y="421"/>
      <point x="247" y="371"/>
      <point x="247" y="325" type="curve" smooth="yes"/>
      <point x="247" y="324"/>
      <point x="247" y="315"/>
      <point x="245" y="308" type="curve"/>
      <point x="301" y="361"/>
      <point x="391" y="426"/>
      <point x="577" y="426" type="curve" smooth="yes"/>
      <point x="601" y="426"/>
      <point x="659" y="426"/>
      <point x="693" y="419" type="curve"/>
      <point x="592" y="398" type="line"/>
      <point x="583" y="398"/>
      <point x="581" y="399"/>
      <point x="571" y="399" type="curve" smooth="yes"/>
      <point x="418" y="399"/>
      <point x="331" y="352"/>
      <point x="260" y="288" type="curve"/>
      <point x="285" y="297"/>
      <point x="310" y="301"/>
      <point x="337" y="301" type="curve" smooth="yes"/>
      <point x="419" y="301"/>
      <point x="486" y="243"/>
      <point x="486" y="165" type="curve" smooth="yes"/>
      <point x="486" y="52"/>
      <point x="389" y="-1"/>
      <point x="270" y="-1" type="curve" smooth="yes"/>
      <point x="147" y="-1"/>
      <point x="65" y="40"/>
    </contour>
    <contour>
      <point x="104" y="100" type="curve"/>
      <point x="149" y="80"/>
      <point x="201" y="70"/>
      <point x="258" y="70" type="curve" smooth="yes"/>
      <point x="365" y="70"/>
      <point x="443" y="108"/>
      <point x="443" y="186" type="curve" smooth="yes"/>
      <point x="443" y="241"/>
      <point x="390" y="277"/>
      <point x="330" y="277" type="curve" smooth="yes"/>
      <point x="156" y="277"/>
      <point x="175" y="141"/>
    </contour>
    <component base="si_Da" xOffset="429"/>
  </outline>
</glyph>
<glyph name="si_NVa.reph" format="1">
  <advance width="1007"/>
  <outline>
    <contour>
      <point x="675" y="606" type="curve" smooth="yes"/>
      <point x="675" y="585"/>
      <point x="694" y="570"/>
      <point x="715" y="570" type="curve" smooth="yes"/>
      <point x="736" y="570"/>
      <point x="755" y="585"/>
      <point x="755" y="606" type="curve" smooth="yes"/>
      <point x="755" y="627"/>
      <point x="736" y="643"/>
      <point x="715" y="643" type="curve" smooth="yes"/>
      <point x="694" y="643"/>
      <point x="675" y="627"/>
    </contour>
    <contour>
      <point x="575" y="625" type="curve" smooth="yes"/>
      <point x="575" y="687"/>
      <point x="632" y="724"/>
      <point x="712" y="724" type="curve" smooth="yes"/>
      <point x="787" y="724"/>
      <point x="850" y="681"/>
      <point x="850" y="612" type="curve" smooth="yes"/>
      <point x="850" y="589"/>
      <point x="842" y="568"/>
      <point x="825" y="549" type="curve"/>
      <point x="792" y="549" type="line"/>
      <point x="805" y="561"/>
      <point x="821" y="585"/>
      <point x="821" y="611" type="curve" smooth="yes"/>
      <point x="821" y="667"/>
      <point x="771" y="697"/>
      <point x="711" y="697" type="curve" smooth="yes"/>
      <point x="659" y="697"/>
      <point x="606" y="677"/>
      <point x="606" y="625" type="curve" smooth="yes"/>
      <point x="606" y="587"/>
      <point x="646" y="568"/>
      <point x="668" y="566" type="curve"/>
      <point x="660" y="572"/>
      <point x="649" y="586"/>
      <point x="649" y="607" type="curve" smooth="yes"/>
      <point x="649" y="641"/>
      <point x="679" y="666"/>
      <point x="714" y="666" type="curve" smooth="yes"/>
      <point x="754" y="666"/>
      <point x="782" y="639"/>
      <point x="782" y="605" type="curve" smooth="yes"/>
      <point x="782" y="567"/>
      <point x="748" y="542"/>
      <point x="691" y="542" type="curve" smooth="yes"/>
      <point x="633" y="542"/>
      <point x="575" y="570"/>
    </contour>
    <contour>
      <point x="26" y="121" type="curve"/>
      <point x="40" y="115"/>
      <point x="52" y="112"/>
      <point x="62" y="112" type="curve" smooth="yes"/>
      <point x="122" y="112"/>
      <point x="127" y="196"/>
      <point x="202" y="271" type="curve"/>
      <point x="217" y="286"/>
      <point x="221" y="306"/>
      <point x="221" y="319" type="curve" smooth="yes"/>
      <point x="221" y="356"/>
      <point x="205" y="380"/>
      <point x="172" y="380" type="curve" smooth="yes"/>
      <point x="144" y="380"/>
      <point x="132" y="358"/>
      <point x="131" y="337" type="curve" smooth="yes"/>
      <point x="130" y="318"/>
      <point x="122" y="290"/>
      <point x="91" y="290" type="curve" smooth="yes"/>
      <point x="68" y="290"/>
      <point x="54" y="308"/>
      <point x="54" y="333" type="curve" smooth="yes"/>
      <point x="54" y="374"/>
      <point x="87" y="421"/>
      <point x="150" y="421" type="curve" smooth="yes"/>
      <point x="218" y="421"/>
      <point x="247" y="371"/>
      <point x="247" y="325" type="curve" smooth="yes"/>
      <point x="247" y="324"/>
      <point x="247" y="315"/>
      <point x="245" y="308" type="curve"/>
      <point x="292" y="359"/>
      <point x="387" y="424"/>
      <point x="545" y="424" type="curve" smooth="yes"/>
      <point x="556" y="424"/>
      <point x="583" y="423"/>
      <point x="605" y="420" type="curve"/>
      <point x="590" y="413"/>
      <point x="527" y="402"/>
      <point x="515" y="396" type="curve"/>
      <point x="407" y="396"/>
      <point x="310" y="340"/>
      <point x="260" y="288" type="curve"/>
      <point x="285" y="297"/>
      <point x="310" y="301"/>
      <point x="337" y="301" type="curve" smooth="yes"/>
      <point x="419" y="301"/>
      <point x="486" y="243"/>
      <point x="486" y="165" type="curve" smooth="yes"/>
      <point x="486" y="52"/>
      <point x="389" y="-1"/>
      <point x="270" y="-1" type="curve" smooth="yes"/>
      <point x="147" y="-1"/>
      <point x="65" y="40"/>
    </contour>
    <contour>
      <point x="104" y="100" type="curve"/>
      <point x="149" y="80"/>
      <point x="201" y="70"/>
      <point x="258" y="70" type="curve" smooth="yes"/>
      <point x="365" y="70"/>
      <point x="443" y="108"/>
      <point x="443" y="186" type="curve" smooth="yes"/>
      <point x="443" y="241"/>
      <point x="390" y="277"/>
      <point x="330" y="277" type="curve" smooth="yes"/>
      <point x="156" y="277"/>
      <point x="175" y="141"/>
    </contour>
    <component base="si_Va" xOffset="428"/>
  </outline>
</glyph>
<glyph name="si_NdAa" format="1">
  <advance width="533"/>
  <outline>
    <contour>
      <point x="112" y="165" type="curve" smooth="yes"/>
      <point x="112" y="67"/>
      <point x="183" y="-1"/>
      <point x="311" y="-1" type="curve" smooth="yes"/>
      <point x="332" y="-1"/>
      <point x="347" y="-1"/>
      <point x="374" y="4" type="curve"/>
      <point x="361" y="-6"/>
      <point x="353" y="-28"/>
      <point x="353" y="-44" type="curve"/>
      <point x="379" y="-44" type="line"/>
      <point x="379" y="-28"/>
      <point x="391" y="0"/>
      <point x="419" y="0" type="curve" smooth="yes"/>
      <point x="449" y="0"/>
      <point x="463" y="-41"/>
      <point x="463" y="-85" type="curve" smooth="yes"/>
      <point x="463" y="-145"/>
      <point x="453" y="-183"/>
      <point x="412" y="-183" type="curve" smooth="yes"/>
      <point x="393" y="-183"/>
      <point x="385" y="-172"/>
      <point x="385" y="-162" type="curve"/>
      <point x="357" y="-162" type="line"/>
      <point x="357" y="-183"/>
      <point x="374" y="-207"/>
      <point x="422" y="-207" type="curve" smooth="yes"/>
      <point x="480" y="-207"/>
      <point x="519" y="-171"/>
      <point x="519" y="-85" type="curve" smooth="yes"/>
      <point x="519" y="-18"/>
      <point x="486" y="33"/>
      <point x="439" y="33" type="curve" smooth="yes"/>
      <point x="435" y="33"/>
      <point x="438" y="33"/>
      <point x="435" y="32" type="curve"/>
      <point x="450" y="40"/>
      <point x="464" y="56"/>
      <point x="484" y="73" type="curve"/>
      <point x="463" y="90" type="line"/>
      <point x="424" y="45"/>
      <point x="383" y="25"/>
      <point x="334" y="25" type="curve" smooth="yes"/>
      <point x="251" y="25"/>
      <point x="188" y="87"/>
      <point x="188" y="169" type="curve" smooth="yes"/>
      <point x="188" y="251"/>
      <point x="232" y="287"/>
      <point x="318" y="287" type="curve" smooth="yes"/>
      <point x="452" y="287" type="line"/>
      <point x="434" y="380"/>
      <point x="393" y="423"/>
      <point x="309" y="423" type="curve" smooth="yes"/>
      <point x="255" y="423"/>
      <point x="216" y="398"/>
      <point x="216" y="363" type="curve" smooth="yes"/>
      <point x="216" y="342"/>
      <point x="229" y="328"/>
      <point x="253" y="328" type="curve" smooth="yes"/>
      <point x="268" y="328"/>
      <point x="283" y="336"/>
      <point x="293" y="357" type="curve" smooth="yes"/>
      <point x="302" y="375"/>
      <point x="317" y="387"/>
      <point x="336" y="387" type="curve" smooth="yes"/>
      <point x="379" y="387"/>
      <point x="407" y="355"/>
      <point x="417" y="310" type="curve"/>
      <point x="300" y="310" type="line" smooth="yes"/>
      <point x="184" y="310"/>
      <point x="112" y="268"/>
    </contour>
    <contour>
      <point x="346" y="420" type="curve"/>
      <point x="314" y="426"/>
      <point x="285" y="426"/>
      <point x="260" y="426" type="curve" smooth="yes"/>
      <point x="96" y="426"/>
      <point x="26" y="329"/>
      <point x="26" y="216" type="curve" smooth="yes"/>
      <point x="26" y="117"/>
      <point x="68" y="32"/>
      <point x="132" y="0" type="curve"/>
      <point x="132" y="29" type="line"/>
      <point x="84" y="71"/>
      <point x="55" y="131"/>
      <point x="55" y="213" type="curve" smooth="yes"/>
      <point x="55" y="363"/>
      <point x="168" y="397"/>
      <point x="250" y="397" type="curve"/>
      <point x="259" y="402"/>
      <point x="325" y="409"/>
    </contour>
  </outline>
</glyph>
<glyph name="si_Ndj.halant" format="1">
  <advance width="682"/>
  <outline>
    <contour>
      <point x="393" y="348" type="line"/>
      <point x="393" y="738" type="line"/>
      <point x="449" y="692"/>
      <point x="536" y="687"/>
      <point x="536" y="611" type="curve" smooth="yes"/>
      <point x="536" y="566"/>
      <point x="503" y="537"/>
      <point x="461" y="537" type="curve" smooth="yes"/>
      <point x="447" y="537"/>
      <point x="433" y="538"/>
      <point x="418" y="543" type="curve"/>
      <point x="418" y="391" type="line"/>
    </contour>
    <contour>
      <point x="418" y="567" type="line"/>
      <point x="428" y="563"/>
      <point x="439" y="562"/>
      <point x="454" y="562" type="curve" smooth="yes"/>
      <point x="486" y="562"/>
      <point x="500" y="585"/>
      <point x="500" y="607" type="curve" smooth="yes"/>
      <point x="500" y="656"/>
      <point x="454" y="671"/>
      <point x="418" y="695" type="curve"/>
    </contour>
    <component base="si_Ndja"/>
  </outline>
</glyph>
<glyph name="si_NgI" format="1">
  <advance width="602"/>
  <outline>
    <contour>
      <point x="72" y="549" type="curve" smooth="yes"/>
      <point x="72" y="637"/>
      <point x="193" y="654"/>
      <point x="291" y="654" type="curve" smooth="yes"/>
      <point x="424" y="654"/>
      <point x="526" y="624"/>
      <point x="526" y="541" type="curve" smooth="yes"/>
      <point x="526" y="490"/>
      <point x="473" y="469"/>
      <point x="440" y="463" type="curve"/>
      <point x="392" y="479" type="line"/>
      <point x="427" y="480"/>
      <point x="480" y="494"/>
      <point x="480" y="531" type="curve" smooth="yes"/>
      <point x="480" y="586"/>
      <point x="396" y="597"/>
      <point x="291" y="597" type="curve" smooth="yes"/>
      <point x="217" y="597"/>
      <point x="113" y="592"/>
      <point x="113" y="541" type="curve" smooth="yes"/>
      <point x="113" y="496"/>
      <point x="170" y="496"/>
      <point x="270" y="492" type="curve" smooth="yes"/>
      <point x="333" y="489"/>
      <point x="420" y="487"/>
      <point x="474" y="448" type="curve" smooth="yes"/>
      <point x="522" y="413"/>
      <point x="557" y="341"/>
      <point x="557" y="248" type="curve"/>
      <point x="521" y="272" type="line"/>
      <point x="521" y="321"/>
      <point x="507" y="375"/>
      <point x="480" y="404" type="curve" smooth="yes"/>
      <point x="428" y="461"/>
      <point x="370" y="461"/>
      <point x="271" y="467" type="curve" smooth="yes"/>
      <point x="184" y="472"/>
      <point x="72" y="465"/>
    </contour>
    <contour>
      <point x="86" y="339" type="curve" smooth="yes"/>
      <point x="86" y="313"/>
      <point x="110" y="291"/>
      <point x="139" y="291" type="curve" smooth="yes"/>
      <point x="168" y="291"/>
      <point x="190" y="313"/>
      <point x="190" y="339" type="curve" smooth="yes"/>
      <point x="190" y="365"/>
      <point x="168" y="387"/>
      <point x="139" y="387" type="curve" smooth="yes"/>
      <point x="110" y="387"/>
      <point x="86" y="365"/>
    </contour>
    <contour>
      <point x="50" y="137" type="curve" smooth="yes"/>
      <point x="50" y="207"/>
      <point x="107" y="252"/>
      <point x="175" y="252" type="curve" smooth="yes"/>
      <point x="210" y="252"/>
      <point x="239" y="245"/>
      <point x="273" y="245" type="curve" smooth="yes"/>
      <point x="318" y="245"/>
      <point x="335" y="268"/>
      <point x="335" y="303" type="curve" smooth="yes"/>
      <point x="335" y="373"/>
      <point x="261" y="401"/>
      <point x="209" y="401" type="curve" smooth="yes"/>
      <point x="195" y="401"/>
      <point x="186" y="400"/>
      <point x="178" y="399" type="curve"/>
      <point x="197" y="389"/>
      <point x="217" y="371"/>
      <point x="217" y="337" type="curve" smooth="yes"/>
      <point x="217" y="302"/>
      <point x="185" y="266"/>
      <point x="138" y="266" type="curve" smooth="yes"/>
      <point x="98" y="266"/>
      <point x="59" y="296"/>
      <point x="59" y="338" type="curve" smooth="yes"/>
      <point x="59" y="393"/>
      <point x="117" y="424"/>
      <point x="203" y="424" type="curve" smooth="yes"/>
      <point x="304" y="424"/>
      <point x="363" y="369"/>
      <point x="363" y="299" type="curve" smooth="yes"/>
      <point x="363" y="259"/>
      <point x="338" y="219"/>
      <point x="273" y="219" type="curve" smooth="yes"/>
      <point x="233" y="219"/>
      <point x="219" y="225"/>
      <point x="177" y="225" type="curve" smooth="yes"/>
      <point x="129" y="225"/>
      <point x="87" y="199"/>
      <point x="87" y="152" type="curve" smooth="yes"/>
      <point x="87" y="101"/>
      <point x="127" y="69"/>
      <point x="182" y="69" type="curve" smooth="yes"/>
      <point x="230" y="69"/>
      <point x="277" y="94"/>
      <point x="277" y="141" type="curve" smooth="yes"/>
      <point x="277" y="173" type="line"/>
      <point x="304" y="173" type="line"/>
      <point x="304" y="141" type="line" smooth="yes"/>
      <point x="304" y="96"/>
      <point x="353" y="68"/>
      <point x="402" y="68" type="curve" smooth="yes"/>
      <point x="480" y="68"/>
      <point x="521" y="156"/>
      <point x="521" y="276" type="curve"/>
      <point x="534" y="263"/>
      <point x="548" y="262"/>
      <point x="557" y="254" type="curve"/>
      <point x="557" y="111"/>
      <point x="504" y="0"/>
      <point x="406" y="0" type="curve" smooth="yes"/>
      <point x="345" y="0"/>
      <point x="321" y="21"/>
      <point x="291" y="58" type="curve"/>
      <point x="261" y="20"/>
      <point x="228" y="0"/>
      <point x="184" y="0" type="curve" smooth="yes"/>
      <point x="105" y="0"/>
      <point x="50" y="59"/>
    </contour>
  </outline>
</glyph>
<glyph name="si_Nga.touch" format="1">
  <advance width="602"/>
  <outline>
    <contour>
      <point x="558" y="0" type="move" name="cursive"/>
    </contour>
    <component base="si_Nga"/>
  </outline>
</glyph>
<glyph name="si_NnU" format="1">
  <advance width="940"/>
  <outline>
    <contour>
      <point x="229" y="-139" type="curve" smooth="yes"/>
      <point x="229" y="-88"/>
      <point x="274" y="-49"/>
      <point x="328" y="-49" type="curve" smooth="yes"/>
      <point x="369" y="-49"/>
      <point x="405" y="-72"/>
      <point x="420" y="-107" type="curve"/>
      <point x="391" y="-119" type="line"/>
      <point x="384" y="-99"/>
      <point x="360" y="-78"/>
      <point x="328" y="-78" type="curve" smooth="yes"/>
      <point x="292" y="-78"/>
      <point x="262" y="-104"/>
      <point x="262" y="-139" type="curve" smooth="yes"/>
      <point x="262" y="-167"/>
      <point x="285" y="-194"/>
      <point x="349" y="-194" type="curve" smooth="yes"/>
      <point x="854" y="-194" type="line"/>
      <point x="854" y="125" type="line"/>
      <point x="886" y="214" type="line"/>
      <point x="886" y="-229" type="line"/>
      <point x="332" y="-229" type="line" smooth="yes"/>
      <point x="265" y="-229"/>
      <point x="229" y="-182"/>
    </contour>
    <component base="si_Nna"/>
  </outline>
</glyph>
<glyph name="si_NnUu" format="1">
  <advance width="940"/>
  <outline>
    <contour>
      <point x="229" y="-135" type="curve" smooth="yes"/>
      <point x="229" y="-78"/>
      <point x="277" y="-39"/>
      <point x="329" y="-39" type="curve" smooth="yes"/>
      <point x="370" y="-39"/>
      <point x="402" y="-54"/>
      <point x="424" y="-89" type="curve"/>
      <point x="395" y="-100" type="line"/>
      <point x="383" y="-81"/>
      <point x="362" y="-66"/>
      <point x="334" y="-66" type="curve" smooth="yes"/>
      <point x="296" y="-66"/>
      <point x="265" y="-90"/>
      <point x="265" y="-126" type="curve" smooth="yes"/>
      <point x="265" y="-162"/>
      <point x="293" y="-187"/>
      <point x="354" y="-187" type="curve" smooth="yes"/>
      <point x="458" y="-187"/>
      <point x="548" y="-112"/>
      <point x="673" y="-112" type="curve" smooth="yes"/>
      <point x="773" y="-112"/>
      <point x="824" y="-143"/>
      <point x="854" y="-167" type="curve"/>
      <point x="854" y="148" type="line"/>
      <point x="886" y="207" type="line"/>
      <point x="886" y="-226" type="line"/>
      <point x="863" y="-226" type="line"/>
      <point x="847" y="-192"/>
      <point x="795" y="-139"/>
      <point x="681" y="-139" type="curve" smooth="yes"/>
      <point x="549" y="-139"/>
      <point x="473" y="-231"/>
      <point x="353" y="-231" type="curve" smooth="yes"/>
      <point x="293" y="-231"/>
      <point x="229" y="-201"/>
    </contour>
    <component base="si_Nna"/>
  </outline>
</glyph>
<glyph name="si_Nna.reph" format="1">
  <advance width="940"/>
  <outline>
    <contour>
      <point x="51" y="0" type="move" name="_cursive"/>
    </contour>
    <contour>
      <point x="389" y="498" type="curve" smooth="yes"/>
      <point x="389" y="477"/>
      <point x="408" y="462"/>
      <point x="429" y="462" type="curve" smooth="yes"/>
      <point x="450" y="462"/>
      <point x="469" y="477"/>
      <point x="469" y="498" type="curve" smooth="yes"/>
      <point x="469" y="519"/>
      <point x="450" y="535"/>
      <point x="429" y="535" type="curve" smooth="yes"/>
      <point x="408" y="535"/>
      <point x="389" y="519"/>
    </contour>
    <contour>
      <point x="289" y="518" type="curve" smooth="yes"/>
      <point x="289" y="580"/>
      <point x="346" y="615"/>
      <point x="426" y="615" type="curve" smooth="yes"/>
      <point x="501" y="615"/>
      <point x="563" y="573"/>
      <point x="563" y="504" type="curve" smooth="yes"/>
      <point x="563" y="481"/>
      <point x="556" y="460"/>
      <point x="539" y="441" type="curve"/>
      <point x="506" y="441" type="line"/>
      <point x="519" y="453"/>
      <point x="534" y="478"/>
      <point x="534" y="504" type="curve" smooth="yes"/>
      <point x="534" y="560"/>
      <point x="485" y="589"/>
      <point x="425" y="589" type="curve" smooth="yes"/>
      <point x="373" y="589"/>
      <point x="319" y="570"/>
      <point x="319" y="518" type="curve" smooth="yes"/>
      <point x="319" y="480"/>
      <point x="361" y="461"/>
      <point x="383" y="459" type="curve"/>
      <point x="375" y="465"/>
      <point x="362" y="479"/>
      <point x="362" y="500" type="curve" smooth="yes"/>
      <point x="362" y="534"/>
      <point x="393" y="559"/>
      <point x="428" y="559" type="curve" smooth="yes"/>
      <point x="468" y="559"/>
      <point x="495" y="532"/>
      <point x="495" y="498" type="curve" smooth="yes"/>
      <point x="495" y="460"/>
      <point x="461" y="434"/>
      <point x="404" y="434" type="curve" smooth="yes"/>
      <point x="346" y="434"/>
      <point x="289" y="463"/>
    </contour>
    <component base="si_Nna"/>
  </outline>
</glyph>
<glyph name="si_Nndd.halant" format="1">
  <advance width="713"/>
  <outline>
    <contour>
      <point x="229" y="530" type="curve" smooth="yes"/>
      <point x="229" y="518"/>
      <point x="252" y="514"/>
      <point x="252" y="503" type="curve" smooth="yes"/>
      <point x="252" y="501"/>
      <point x="251" y="498"/>
      <point x="249" y="496" type="curve"/>
      <point x="281" y="502"/>
      <point x="320" y="507"/>
      <point x="365" y="507" type="curve" smooth="yes"/>
      <point x="470" y="507"/>
      <point x="553" y="478"/>
      <point x="610" y="412" type="curve"/>
      <point x="578" y="524"/>
      <point x="483" y="576"/>
      <point x="370" y="576" type="curve" smooth="yes"/>
      <point x="300" y="576"/>
      <point x="229" y="553"/>
    </contour>
    <contour>
      <point x="134" y="432" type="curve"/>
      <point x="134" y="462" type="line"/>
      <point x="165" y="474"/>
      <point x="216" y="487"/>
      <point x="216" y="496" type="curve" smooth="yes"/>
      <point x="216" y="508"/>
      <point x="188" y="512"/>
      <point x="188" y="533" type="curve" smooth="yes"/>
      <point x="188" y="569"/>
      <point x="252" y="614"/>
      <point x="364" y="614" type="curve" smooth="yes"/>
      <point x="567" y="614"/>
      <point x="639" y="479"/>
      <point x="651" y="348" type="curve"/>
      <point x="662" y="322"/>
      <point x="669" y="289"/>
      <point x="669" y="248" type="curve"/>
      <point x="633" y="244" type="line"/>
      <point x="633" y="247"/>
      <point x="634" y="261"/>
      <point x="634" y="266" type="curve" smooth="yes"/>
      <point x="634" y="400"/>
      <point x="525" y="481"/>
      <point x="368" y="481" type="curve" smooth="yes"/>
      <point x="294" y="481"/>
      <point x="213" y="469"/>
    </contour>
    <contour>
      <point x="100" y="281" type="line"/>
      <point x="100" y="308" type="line"/>
      <point x="340" y="308" type="line"/>
      <point x="337" y="350"/>
      <point x="307" y="382"/>
      <point x="278" y="382" type="curve" smooth="yes"/>
      <point x="260" y="382"/>
      <point x="246" y="377"/>
      <point x="232" y="354" type="curve" smooth="yes"/>
      <point x="221" y="335"/>
      <point x="209" y="331"/>
      <point x="195" y="331" type="curve" smooth="yes"/>
      <point x="175" y="331"/>
      <point x="159" y="344"/>
      <point x="159" y="365" type="curve" smooth="yes"/>
      <point x="159" y="404"/>
      <point x="205" y="422"/>
      <point x="246" y="422" type="curve" smooth="yes"/>
      <point x="328" y="422"/>
      <point x="372" y="365"/>
      <point x="373" y="281" type="curve"/>
      <point x="300" y="281" type="line" smooth="yes"/>
      <point x="209" y="281"/>
      <point x="166" y="225"/>
      <point x="166" y="170" type="curve" smooth="yes"/>
      <point x="166" y="119"/>
      <point x="205" y="69"/>
      <point x="278" y="69" type="curve" smooth="yes"/>
      <point x="326" y="69"/>
      <point x="377" y="93"/>
      <point x="377" y="140" type="curve" smooth="yes"/>
      <point x="377" y="174" type="line"/>
      <point x="403" y="174" type="line"/>
      <point x="403" y="140" type="line" smooth="yes"/>
      <point x="403" y="95"/>
      <point x="450" y="69"/>
      <point x="499" y="69" type="curve" smooth="yes"/>
      <point x="593" y="69"/>
      <point x="634" y="163"/>
      <point x="634" y="267" type="curve"/>
      <point x="649" y="264"/>
      <point x="662" y="256"/>
      <point x="669" y="252" type="curve"/>
      <point x="669" y="123"/>
      <point x="619" y="0"/>
      <point x="503" y="0" type="curve" smooth="yes"/>
      <point x="440" y="0"/>
      <point x="412" y="29"/>
      <point x="391" y="58" type="curve"/>
      <point x="362" y="22"/>
      <point x="329" y="0"/>
      <point x="279" y="0" type="curve" smooth="yes"/>
      <point x="180" y="0"/>
      <point x="130" y="79"/>
      <point x="130" y="158" type="curve" smooth="yes"/>
      <point x="130" y="207"/>
      <point x="154" y="258"/>
      <point x="207" y="281" type="curve"/>
    </contour>
    <contour>
      <point x="26" y="216" type="curve" smooth="yes"/>
      <point x="26" y="345"/>
      <point x="97" y="423"/>
      <point x="233" y="423" type="curve" smooth="yes"/>
      <point x="242" y="423"/>
      <point x="265" y="423"/>
      <point x="286" y="417" type="curve"/>
      <point x="265" y="406"/>
      <point x="190" y="397"/>
      <point x="173" y="391" type="curve"/>
      <point x="100" y="373"/>
      <point x="55" y="312"/>
      <point x="55" y="213" type="curve" smooth="yes"/>
      <point x="55" y="134"/>
      <point x="81" y="73"/>
      <point x="132" y="29" type="curve"/>
      <point x="132" y="0" type="line"/>
      <point x="68" y="32"/>
      <point x="26" y="117"/>
    </contour>
  </outline>
</glyph>
<glyph name="si_Reph" format="1">
  <advance width="0"/>
  <outline>
    <contour>
      <point x="-38" y="504" type="curve" smooth="yes"/>
      <point x="-38" y="483"/>
      <point x="-19" y="468"/>
      <point x="2" y="468" type="curve" smooth="yes"/>
      <point x="23" y="468"/>
      <point x="42" y="483"/>
      <point x="42" y="504" type="curve" smooth="yes"/>
      <point x="42" y="525"/>
      <point x="23" y="540"/>
      <point x="2" y="540" type="curve" smooth="yes"/>
      <point x="-19" y="540"/>
      <point x="-38" y="525"/>
    </contour>
    <contour>
      <point x="-138" y="522" type="curve" smooth="yes"/>
      <point x="-138" y="584"/>
      <point x="-81" y="621"/>
      <point x="-1" y="621" type="curve" smooth="yes"/>
      <point x="74" y="621"/>
      <point x="137" y="579"/>
      <point x="137" y="510" type="curve" smooth="yes"/>
      <point x="137" y="487"/>
      <point x="129" y="465"/>
      <point x="112" y="446" type="curve"/>
      <point x="79" y="446" type="line"/>
      <point x="92" y="458"/>
      <point x="107" y="483"/>
      <point x="107" y="509" type="curve" smooth="yes"/>
      <point x="107" y="565"/>
      <point x="58" y="595"/>
      <point x="-2" y="595" type="curve" smooth="yes"/>
      <point x="-54" y="595"/>
      <point x="-107" y="574"/>
      <point x="-107" y="522" type="curve" smooth="yes"/>
      <point x="-107" y="484"/>
      <point x="-67" y="466"/>
      <point x="-45" y="464" type="curve"/>
      <point x="-53" y="470"/>
      <point x="-64" y="484"/>
      <point x="-64" y="505" type="curve" smooth="yes"/>
      <point x="-64" y="539"/>
      <point x="-34" y="563"/>
      <point x="1" y="563" type="curve" smooth="yes"/>
      <point x="41" y="563"/>
      <point x="68" y="537"/>
      <point x="68" y="503" type="curve" smooth="yes"/>
      <point x="68" y="465"/>
      <point x="35" y="439"/>
      <point x="-22" y="439" type="curve" smooth="yes"/>
      <point x="-80" y="439"/>
      <point x="-138" y="467"/>
    </contour>
  </outline>
</glyph>
<glyph name="si_Ssa.reph" format="1">
  <advance width="607"/>
  <outline>
    <contour>
      <point x="45" y="0" type="move" name="_cursive"/>
    </contour>
    <contour>
      <point x="261" y="499" type="curve" smooth="yes"/>
      <point x="261" y="478"/>
      <point x="280" y="463"/>
      <point x="301" y="463" type="curve" smooth="yes"/>
      <point x="322" y="463"/>
      <point x="341" y="478"/>
      <point x="341" y="499" type="curve" smooth="yes"/>
      <point x="341" y="520"/>
      <point x="322" y="535"/>
      <point x="301" y="535" type="curve" smooth="yes"/>
      <point x="280" y="535"/>
      <point x="261" y="520"/>
    </contour>
    <contour>
      <point x="161" y="518" type="curve" smooth="yes"/>
      <point x="161" y="580"/>
      <point x="218" y="616"/>
      <point x="298" y="616" type="curve" smooth="yes"/>
      <point x="373" y="616"/>
      <point x="436" y="574"/>
      <point x="436" y="505" type="curve" smooth="yes"/>
      <point x="436" y="482"/>
      <point x="428" y="460"/>
      <point x="411" y="441" type="curve"/>
      <point x="378" y="441" type="line"/>
      <point x="391" y="453"/>
      <point x="406" y="478"/>
      <point x="406" y="504" type="curve" smooth="yes"/>
      <point x="406" y="560"/>
      <point x="357" y="590"/>
      <point x="297" y="590" type="curve" smooth="yes"/>
      <point x="245" y="590"/>
      <point x="191" y="570"/>
      <point x="191" y="518" type="curve" smooth="yes"/>
      <point x="191" y="480"/>
      <point x="232" y="461"/>
      <point x="254" y="459" type="curve"/>
      <point x="246" y="465"/>
      <point x="234" y="479"/>
      <point x="234" y="500" type="curve" smooth="yes"/>
      <point x="234" y="534"/>
      <point x="265" y="559"/>
      <point x="300" y="559" type="curve" smooth="yes"/>
      <point x="340" y="559"/>
      <point x="367" y="532"/>
      <point x="367" y="498" type="curve" smooth="yes"/>
      <point x="367" y="460"/>
      <point x="333" y="435"/>
      <point x="276" y="435" type="curve" smooth="yes"/>
      <point x="218" y="435"/>
      <point x="161" y="463"/>
    </contour>
    <component base="si_Ssa"/>
  </outline>
</glyph>
<glyph name="si_TI" format="1">
  <advance width="687"/>
  <outline>
    <contour>
      <point x="206" y="411" type="curve" smooth="yes"/>
      <point x="206" y="566"/>
      <point x="311" y="655"/>
      <point x="445" y="655" type="curve" smooth="yes"/>
      <point x="567" y="655"/>
      <point x="647" y="588"/>
      <point x="647" y="493" type="curve" smooth="yes"/>
      <point x="647" y="433"/>
      <point x="610" y="385"/>
      <point x="557" y="369" type="curve"/>
      <point x="530" y="392" type="line"/>
      <point x="567" y="394"/>
      <point x="611" y="430"/>
      <point x="611" y="475" type="curve" smooth="yes"/>
      <point x="611" y="553"/>
      <point x="522" y="584"/>
      <point x="445" y="584" type="curve" smooth="yes"/>
      <point x="316" y="584"/>
      <point x="233" y="508"/>
      <point x="233" y="395" type="curve" smooth="yes"/>
      <point x="233" y="380"/>
      <point x="235" y="367"/>
      <point x="238" y="356" type="curve"/>
      <point x="213" y="335" type="line"/>
      <point x="209" y="353"/>
      <point x="206" y="381"/>
    </contour>
    <component base="si_Ta"/>
  </outline>
</glyph>
<glyph name="si_TThIi" format="1">
  <advance width="992"/>
  <outline>
    <contour>
      <point x="21" y="24" type="line"/>
      <point x="34" y="127"/>
      <point x="100" y="237"/>
      <point x="155" y="299" type="curve"/>
      <point x="163" y="308"/>
      <point x="175" y="322"/>
      <point x="175" y="341" type="curve" smooth="yes"/>
      <point x="175" y="362"/>
      <point x="166" y="379"/>
      <point x="147" y="379" type="curve" smooth="yes"/>
      <point x="130" y="379"/>
      <point x="117" y="369"/>
      <point x="116" y="348" type="curve" smooth="yes"/>
      <point x="115" y="319"/>
      <point x="108" y="288"/>
      <point x="74" y="288" type="curve" smooth="yes"/>
      <point x="49" y="288"/>
      <point x="36" y="310"/>
      <point x="36" y="334" type="curve" smooth="yes"/>
      <point x="36" y="383"/>
      <point x="76" y="423"/>
      <point x="124" y="423" type="curve" smooth="yes"/>
      <point x="173" y="423"/>
      <point x="201" y="390"/>
      <point x="201" y="348" type="curve" smooth="yes"/>
      <point x="201" y="343"/>
      <point x="201" y="344"/>
      <point x="200" y="339" type="curve"/>
      <point x="286" y="401"/>
      <point x="372" y="424"/>
      <point x="535" y="424" type="curve" smooth="yes"/>
      <point x="558" y="424"/>
      <point x="596" y="424"/>
      <point x="628" y="420" type="curve"/>
      <point x="607" y="408"/>
      <point x="571" y="406"/>
      <point x="554" y="398" type="curve"/>
      <point x="389" y="398"/>
      <point x="280" y="376"/>
      <point x="196" y="299" type="curve"/>
      <point x="217" y="308"/>
      <point x="243" y="312"/>
      <point x="274" y="312" type="curve" smooth="yes"/>
      <point x="373" y="312"/>
      <point x="448" y="262"/>
      <point x="448" y="158" type="curve" smooth="yes"/>
      <point x="448" y="68"/>
      <point x="382" y="-2"/>
      <point x="275" y="-2" type="curve" smooth="yes"/>
      <point x="130" y="-2"/>
      <point x="137" y="77"/>
      <point x="87" y="77" type="curve" smooth="yes"/>
      <point x="64" y="77"/>
      <point x="52" y="52"/>
      <point x="43" y="9" type="curve"/>
    </contour>
    <contour>
      <point x="69" y="98" type="curve"/>
      <point x="78" y="105"/>
      <point x="90" y="106"/>
      <point x="101" y="106" type="curve" smooth="yes"/>
      <point x="137" y="106"/>
      <point x="172" y="71"/>
      <point x="248" y="71" type="curve" smooth="yes"/>
      <point x="333" y="71"/>
      <point x="407" y="101"/>
      <point x="407" y="184" type="curve" smooth="yes"/>
      <point x="407" y="254"/>
      <point x="341" y="289"/>
      <point x="276" y="289" type="curve" smooth="yes"/>
      <point x="228" y="289"/>
      <point x="183" y="277"/>
      <point x="153" y="254" type="curve"/>
      <point x="123" y="217"/>
      <point x="90" y="161"/>
    </contour>
    <contour>
      <point x="424" y="229" type="curve" smooth="yes"/>
      <point x="424" y="336"/>
      <point x="523" y="420"/>
      <point x="631" y="420" type="curve"/>
      <point x="631" y="396" type="line"/>
      <point x="536" y="396"/>
      <point x="457" y="328"/>
      <point x="457" y="236" type="curve" smooth="yes"/>
      <point x="457" y="119"/>
      <point x="560" y="69"/>
      <point x="689" y="69" type="curve" smooth="yes"/>
      <point x="814" y="69"/>
      <point x="910" y="150"/>
      <point x="910" y="274" type="curve" smooth="yes"/>
      <point x="910" y="330"/>
      <point x="894" y="379"/>
      <point x="873" y="410" type="curve"/>
      <point x="858" y="378"/>
      <point x="829" y="358"/>
      <point x="787" y="358" type="curve" smooth="yes"/>
      <point x="725" y="358"/>
      <point x="689" y="413"/>
      <point x="689" y="477" type="curve" smooth="yes"/>
      <point x="689" y="526"/>
      <point x="704" y="561"/>
      <point x="730" y="591" type="curve"/>
      <point x="790" y="559"/>
      <point x="860" y="489"/>
      <point x="895" y="428" type="curve" smooth="yes"/>
      <point x="933" y="363"/>
      <point x="944" y="314"/>
      <point x="944" y="246" type="curve" smooth="yes"/>
      <point x="944" y="100"/>
      <point x="831" y="-1"/>
      <point x="680" y="-1" type="curve" smooth="yes"/>
      <point x="539" y="-1"/>
      <point x="424" y="89"/>
    </contour>
    <contour>
      <point x="719" y="480" type="curve" smooth="yes"/>
      <point x="719" y="432"/>
      <point x="738" y="394"/>
      <point x="794" y="394" type="curve" smooth="yes"/>
      <point x="817" y="394"/>
      <point x="844" y="405"/>
      <point x="854" y="438" type="curve"/>
      <point x="825" y="483"/>
      <point x="776" y="528"/>
      <point x="739" y="555" type="curve"/>
      <point x="727" y="537"/>
      <point x="719" y="514"/>
    </contour>
    <contour>
      <point x="815" y="562" type="curve" smooth="yes"/>
      <point x="815" y="534"/>
      <point x="837" y="512"/>
      <point x="865" y="512" type="curve" smooth="yes"/>
      <point x="893" y="512"/>
      <point x="916" y="534"/>
      <point x="916" y="562" type="curve" smooth="yes"/>
      <point x="916" y="590"/>
      <point x="893" y="612"/>
      <point x="865" y="612" type="curve" smooth="yes"/>
      <point x="837" y="612"/>
      <point x="815" y="590"/>
    </contour>
    <contour>
      <point x="488" y="561" type="curve" smooth="yes"/>
      <point x="488" y="651"/>
      <point x="600" y="684"/>
      <point x="706" y="684" type="curve" smooth="yes"/>
      <point x="869" y="684"/>
      <point x="944" y="636"/>
      <point x="944" y="562" type="curve" smooth="yes"/>
      <point x="944" y="523"/>
      <point x="914" y="483"/>
      <point x="865" y="483" type="curve" smooth="yes"/>
      <point x="818" y="483"/>
      <point x="787" y="522"/>
      <point x="787" y="561" type="curve" smooth="yes"/>
      <point x="787" y="575"/>
      <point x="793" y="597"/>
      <point x="810" y="614" type="curve"/>
      <point x="789" y="619"/>
      <point x="749" y="623"/>
      <point x="701" y="623" type="curve" smooth="yes"/>
      <point x="590" y="623"/>
      <point x="525" y="597"/>
      <point x="525" y="553" type="curve" smooth="yes"/>
      <point x="525" y="515"/>
      <point x="569" y="502"/>
      <point x="602" y="502" type="curve" smooth="yes"/>
      <point x="646" y="502"/>
      <point x="678" y="514"/>
      <point x="695" y="522" type="curve"/>
      <point x="694" y="516"/>
      <point x="695" y="509"/>
      <point x="691" y="493" type="curve"/>
      <point x="667" y="485"/>
      <point x="642" y="478"/>
      <point x="600" y="478" type="curve" smooth="yes"/>
      <point x="541" y="478"/>
      <point x="488" y="504"/>
    </contour>
  </outline>
</glyph>
<glyph name="si_TTha.reph" format="1">
  <advance width="992"/>
  <outline>
    <contour>
      <point x="504" y="499" type="curve" smooth="yes"/>
      <point x="504" y="478"/>
      <point x="523" y="463"/>
      <point x="544" y="463" type="curve" smooth="yes"/>
      <point x="565" y="463"/>
      <point x="584" y="478"/>
      <point x="584" y="499" type="curve" smooth="yes"/>
      <point x="584" y="520"/>
      <point x="565" y="535"/>
      <point x="544" y="535" type="curve" smooth="yes"/>
      <point x="523" y="535"/>
      <point x="504" y="520"/>
    </contour>
    <contour>
      <point x="405" y="518" type="curve" smooth="yes"/>
      <point x="405" y="580"/>
      <point x="461" y="616"/>
      <point x="541" y="616" type="curve" smooth="yes"/>
      <point x="616" y="616"/>
      <point x="679" y="574"/>
      <point x="679" y="505" type="curve" smooth="yes"/>
      <point x="679" y="482"/>
      <point x="672" y="460"/>
      <point x="655" y="441" type="curve"/>
      <point x="622" y="441" type="line"/>
      <point x="635" y="453"/>
      <point x="650" y="478"/>
      <point x="650" y="504" type="curve" smooth="yes"/>
      <point x="650" y="560"/>
      <point x="600" y="590"/>
      <point x="540" y="590" type="curve" smooth="yes"/>
      <point x="488" y="590"/>
      <point x="435" y="570"/>
      <point x="435" y="518" type="curve" smooth="yes"/>
      <point x="435" y="480"/>
      <point x="476" y="461"/>
      <point x="498" y="459" type="curve"/>
      <point x="490" y="465"/>
      <point x="478" y="479"/>
      <point x="478" y="500" type="curve" smooth="yes"/>
      <point x="478" y="534"/>
      <point x="508" y="559"/>
      <point x="543" y="559" type="curve" smooth="yes"/>
      <point x="583" y="559"/>
      <point x="611" y="532"/>
      <point x="611" y="498" type="curve" smooth="yes"/>
      <point x="611" y="460"/>
      <point x="577" y="435"/>
      <point x="520" y="435" type="curve" smooth="yes"/>
      <point x="462" y="435"/>
      <point x="405" y="463"/>
    </contour>
    <contour>
      <point x="21" y="24" type="line"/>
      <point x="34" y="127"/>
      <point x="100" y="237"/>
      <point x="155" y="299" type="curve"/>
      <point x="163" y="308"/>
      <point x="175" y="322"/>
      <point x="175" y="341" type="curve" smooth="yes"/>
      <point x="175" y="362"/>
      <point x="166" y="379"/>
      <point x="147" y="379" type="curve" smooth="yes"/>
      <point x="130" y="379"/>
      <point x="117" y="369"/>
      <point x="116" y="348" type="curve" smooth="yes"/>
      <point x="115" y="319"/>
      <point x="108" y="288"/>
      <point x="74" y="288" type="curve" smooth="yes"/>
      <point x="49" y="288"/>
      <point x="36" y="310"/>
      <point x="36" y="334" type="curve" smooth="yes"/>
      <point x="36" y="383"/>
      <point x="76" y="423"/>
      <point x="124" y="423" type="curve" smooth="yes"/>
      <point x="173" y="423"/>
      <point x="201" y="390"/>
      <point x="201" y="348" type="curve" smooth="yes"/>
      <point x="201" y="343"/>
      <point x="201" y="344"/>
      <point x="200" y="339" type="curve"/>
      <point x="286" y="401"/>
      <point x="372" y="424"/>
      <point x="535" y="424" type="curve" smooth="yes"/>
      <point x="558" y="424"/>
      <point x="596" y="424"/>
      <point x="628" y="420" type="curve"/>
      <point x="607" y="408"/>
      <point x="571" y="406"/>
      <point x="554" y="398" type="curve"/>
      <point x="389" y="398"/>
      <point x="280" y="376"/>
      <point x="196" y="299" type="curve"/>
      <point x="217" y="308"/>
      <point x="243" y="312"/>
      <point x="274" y="312" type="curve" smooth="yes"/>
      <point x="373" y="312"/>
      <point x="448" y="262"/>
      <point x="448" y="158" type="curve" smooth="yes"/>
      <point x="448" y="68"/>
      <point x="382" y="-2"/>
      <point x="275" y="-2" type="curve" smooth="yes"/>
      <point x="130" y="-2"/>
      <point x="137" y="77"/>
      <point x="87" y="77" type="curve" smooth="yes"/>
      <point x="64" y="77"/>
      <point x="52" y="52"/>
      <point x="43" y="9" type="curve"/>
    </contour>
    <contour>
      <point x="69" y="98" type="curve"/>
      <point x="78" y="105"/>
      <point x="90" y="106"/>
      <point x="101" y="106" type="curve" smooth="yes"/>
      <point x="137" y="106"/>
      <point x="172" y="71"/>
      <point x="248" y="71" type="curve" smooth="yes"/>
      <point x="333" y="71"/>
      <point x="407" y="101"/>
      <point x="407" y="184" type="curve" smooth="yes"/>
      <point x="407" y="254"/>
      <point x="341" y="289"/>
      <point x="276" y="289" type="curve" smooth="yes"/>
      <point x="228" y="289"/>
      <point x="183" y="277"/>
      <point x="153" y="254" type="curve"/>
      <point x="123" y="217"/>
      <point x="90" y="161"/>
    </contour>
    <component base="si_Tha" xOffset="392"/>
  </outline>
</glyph>
<glyph name="si_TVa.reph" format="1">
  <advance width="977"/>
  <outline>
    <contour>
      <point x="637" y="614" type="curve" smooth="yes"/>
      <point x="637" y="593"/>
      <point x="656" y="578"/>
      <point x="677" y="578" type="curve" smooth="yes"/>
      <point x="698" y="578"/>
      <point x="717" y="593"/>
      <point x="717" y="614" type="curve" smooth="yes"/>
      <point x="717" y="635"/>
      <point x="698" y="651"/>
      <point x="677" y="651" type="curve" smooth="yes"/>
      <point x="656" y="651"/>
      <point x="637" y="635"/>
    </contour>
    <contour>
      <point x="537" y="633" type="curve" smooth="yes"/>
      <point x="537" y="695"/>
      <point x="594" y="732"/>
      <point x="674" y="732" type="curve" smooth="yes"/>
      <point x="749" y="732"/>
      <point x="812" y="689"/>
      <point x="812" y="620" type="curve" smooth="yes"/>
      <point x="812" y="597"/>
      <point x="804" y="576"/>
      <point x="787" y="557" type="curve"/>
      <point x="754" y="557" type="line"/>
      <point x="767" y="569"/>
      <point x="783" y="593"/>
      <point x="783" y="619" type="curve" smooth="yes"/>
      <point x="783" y="675"/>
      <point x="733" y="705"/>
      <point x="673" y="705" type="curve" smooth="yes"/>
      <point x="621" y="705"/>
      <point x="568" y="685"/>
      <point x="568" y="633" type="curve" smooth="yes"/>
      <point x="568" y="595"/>
      <point x="608" y="576"/>
      <point x="630" y="574" type="curve"/>
      <point x="622" y="580"/>
      <point x="611" y="594"/>
      <point x="611" y="615" type="curve" smooth="yes"/>
      <point x="611" y="649"/>
      <point x="641" y="674"/>
      <point x="676" y="674" type="curve" smooth="yes"/>
      <point x="716" y="674"/>
      <point x="744" y="647"/>
      <point x="744" y="613" type="curve" smooth="yes"/>
      <point x="744" y="575"/>
      <point x="710" y="550"/>
      <point x="653" y="550" type="curve" smooth="yes"/>
      <point x="595" y="550"/>
      <point x="537" y="578"/>
    </contour>
    <component base="si_TVa"/>
  </outline>
</glyph>
<glyph name="si_Ta.touch" format="1">
  <advance width="687"/>
  <outline>
    <contour>
      <point x="648" y="0" type="move" name="cursive"/>
    </contour>
    <component base="si_Ta"/>
  </outline>
</glyph>
<glyph name="si_ThIi" format="1">
  <advance width="599"/>
  <outline>
    <contour>
      <point x="32" y="229" type="curve" smooth="yes"/>
      <point x="32" y="336"/>
      <point x="131" y="420"/>
      <point x="239" y="420" type="curve"/>
      <point x="239" y="396" type="line"/>
      <point x="144" y="396"/>
      <point x="65" y="328"/>
      <point x="65" y="236" type="curve" smooth="yes"/>
      <point x="65" y="119"/>
      <point x="169" y="69"/>
      <point x="298" y="69" type="curve" smooth="yes"/>
      <point x="423" y="69"/>
      <point x="519" y="150"/>
      <point x="519" y="274" type="curve" smooth="yes"/>
      <point x="519" y="330"/>
      <point x="502" y="379"/>
      <point x="481" y="410" type="curve"/>
      <point x="466" y="378"/>
      <point x="438" y="358"/>
      <point x="396" y="358" type="curve" smooth="yes"/>
      <point x="334" y="358"/>
      <point x="298" y="413"/>
      <point x="298" y="477" type="curve" smooth="yes"/>
      <point x="298" y="526"/>
      <point x="313" y="561"/>
      <point x="339" y="591" type="curve"/>
      <point x="399" y="559"/>
      <point x="468" y="489"/>
      <point x="503" y="428" type="curve" smooth="yes"/>
      <point x="541" y="363"/>
      <point x="553" y="314"/>
      <point x="553" y="246" type="curve" smooth="yes"/>
      <point x="553" y="100"/>
      <point x="439" y="-1"/>
      <point x="288" y="-1" type="curve" smooth="yes"/>
      <point x="147" y="-1"/>
      <point x="32" y="89"/>
    </contour>
    <contour>
      <point x="424" y="562" type="curve" smooth="yes"/>
      <point x="424" y="534"/>
      <point x="447" y="512"/>
      <point x="475" y="512" type="curve" smooth="yes"/>
      <point x="503" y="512"/>
      <point x="524" y="534"/>
      <point x="524" y="562" type="curve" smooth="yes"/>
      <point x="524" y="590"/>
      <point x="503" y="612"/>
      <point x="475" y="612" type="curve" smooth="yes"/>
      <point x="447" y="612"/>
      <point x="424" y="590"/>
    </contour>
    <contour>
      <point x="96" y="561" type="curve" smooth="yes"/>
      <point x="96" y="651"/>
      <point x="208" y="684"/>
      <point x="314" y="684" type="curve" smooth="yes"/>
      <point x="477" y="684"/>
      <point x="553" y="636"/>
      <point x="553" y="562" type="curve" smooth="yes"/>
      <point x="553" y="523"/>
      <point x="523" y="483"/>
      <point x="474" y="483" type="curve" smooth="yes"/>
      <point x="427" y="483"/>
      <point x="396" y="522"/>
      <point x="396" y="561" type="curve" smooth="yes"/>
      <point x="396" y="575"/>
      <point x="401" y="597"/>
      <point x="418" y="614" type="curve"/>
      <point x="397" y="619"/>
      <point x="357" y="623"/>
      <point x="309" y="623" type="curve" smooth="yes"/>
      <point x="198" y="623"/>
      <point x="135" y="597"/>
      <point x="135" y="553" type="curve" smooth="yes"/>
      <point x="135" y="515"/>
      <point x="176" y="502"/>
      <point x="209" y="502" type="curve" smooth="yes"/>
      <point x="253" y="502"/>
      <point x="286" y="514"/>
      <point x="303" y="522" type="curve"/>
      <point x="302" y="516"/>
      <point x="303" y="509"/>
      <point x="299" y="493" type="curve"/>
      <point x="275" y="485"/>
      <point x="249" y="478"/>
      <point x="207" y="478" type="curve" smooth="yes"/>
      <point x="148" y="478"/>
      <point x="96" y="504"/>
    </contour>
    <contour>
      <point x="327" y="480" type="curve" smooth="yes"/>
      <point x="327" y="432"/>
      <point x="346" y="394"/>
      <point x="402" y="394" type="curve" smooth="yes"/>
      <point x="425" y="394"/>
      <point x="453" y="405"/>
      <point x="463" y="438" type="curve"/>
      <point x="434" y="483"/>
      <point x="385" y="528"/>
      <point x="348" y="555" type="curve"/>
      <point x="336" y="537"/>
      <point x="327" y="514"/>
    </contour>
  </outline>
</glyph>
<glyph name="si_TtTthUu" format="1">
  <advance width="711"/>
  <outline>
    <contour>
      <point x="140" y="-135" type="curve" smooth="yes"/>
      <point x="140" y="-78"/>
      <point x="187" y="-39"/>
      <point x="239" y="-39" type="curve" smooth="yes"/>
      <point x="280" y="-39"/>
      <point x="312" y="-54"/>
      <point x="334" y="-89" type="curve"/>
      <point x="305" y="-100" type="line"/>
      <point x="293" y="-81"/>
      <point x="272" y="-66"/>
      <point x="244" y="-66" type="curve" smooth="yes"/>
      <point x="206" y="-66"/>
      <point x="175" y="-90"/>
      <point x="175" y="-126" type="curve" smooth="yes"/>
      <point x="175" y="-162"/>
      <point x="205" y="-187"/>
      <point x="247" y="-187" type="curve" smooth="yes"/>
      <point x="329" y="-187"/>
      <point x="410" y="-114"/>
      <point x="503" y="-114" type="curve" smooth="yes"/>
      <point x="545" y="-114"/>
      <point x="593" y="-133"/>
      <point x="619" y="-164" type="curve"/>
      <point x="619" y="148" type="line"/>
      <point x="651" y="207" type="line"/>
      <point x="651" y="-226" type="line"/>
      <point x="629" y="-226" type="line"/>
      <point x="614" y="-191"/>
      <point x="572" y="-141"/>
      <point x="506" y="-141" type="curve" smooth="yes"/>
      <point x="417" y="-141"/>
      <point x="344" y="-231"/>
      <point x="248" y="-231" type="curve" smooth="yes"/>
      <point x="194" y="-231"/>
      <point x="140" y="-201"/>
    </contour>
    <contour>
      <point x="122" y="190" type="curve" smooth="yes"/>
      <point x="122" y="281"/>
      <point x="174" y="356"/>
      <point x="238" y="378" type="curve" smooth="yes"/>
      <point x="259" y="385"/>
      <point x="282" y="389"/>
      <point x="306" y="389" type="curve"/>
      <point x="306" y="364" type="line"/>
      <point x="303" y="364"/>
      <point x="299" y="364"/>
      <point x="296" y="364" type="curve" smooth="yes"/>
      <point x="219" y="364"/>
      <point x="155" y="294"/>
      <point x="155" y="207" type="curve" smooth="yes"/>
      <point x="155" y="133"/>
      <point x="202" y="69"/>
      <point x="273" y="69" type="curve" smooth="yes"/>
      <point x="323" y="69"/>
      <point x="373" y="90"/>
      <point x="373" y="152" type="curve" smooth="yes"/>
      <point x="373" y="191" type="line"/>
      <point x="400" y="191" type="line"/>
      <point x="400" y="152" type="line" smooth="yes"/>
      <point x="400" y="90"/>
      <point x="449" y="69"/>
      <point x="497" y="69" type="curve" smooth="yes"/>
      <point x="591" y="69"/>
      <point x="632" y="154"/>
      <point x="632" y="241" type="curve" smooth="yes"/>
      <point x="632" y="310"/>
      <point x="603" y="379"/>
      <point x="582" y="410" type="curve"/>
      <point x="567" y="378"/>
      <point x="538" y="358"/>
      <point x="496" y="358" type="curve" smooth="yes"/>
      <point x="434" y="358"/>
      <point x="398" y="413"/>
      <point x="398" y="477" type="curve" smooth="yes"/>
      <point x="398" y="526"/>
      <point x="413" y="561"/>
      <point x="439" y="591" type="curve"/>
      <point x="499" y="559"/>
      <point x="569" y="489"/>
      <point x="604" y="428" type="curve" smooth="yes"/>
      <point x="642" y="363"/>
      <point x="665" y="300"/>
      <point x="665" y="227" type="curve" smooth="yes"/>
      <point x="665" y="127"/>
      <point x="625" y="0"/>
      <point x="502" y="0" type="curve" smooth="yes"/>
      <point x="454" y="0"/>
      <point x="415" y="20"/>
      <point x="386" y="58" type="curve"/>
      <point x="356" y="20"/>
      <point x="319" y="0"/>
      <point x="275" y="0" type="curve" smooth="yes"/>
      <point x="175" y="0"/>
      <point x="122" y="93"/>
    </contour>
    <contour>
      <point x="428" y="480" type="curve" smooth="yes"/>
      <point x="428" y="432"/>
      <point x="447" y="394"/>
      <point x="503" y="394" type="curve" smooth="yes"/>
      <point x="526" y="394"/>
      <point x="553" y="405"/>
      <point x="563" y="438" type="curve"/>
      <point x="534" y="483"/>
      <point x="485" y="528"/>
      <point x="448" y="555" type="curve"/>
      <point x="436" y="537"/>
      <point x="428" y="514"/>
    </contour>
    <contour>
      <point x="26" y="207" type="curve" smooth="yes"/>
      <point x="26" y="336"/>
      <point x="99" y="423"/>
      <point x="215" y="423" type="curve" smooth="yes"/>
      <point x="240" y="423"/>
      <point x="283" y="417"/>
      <point x="306" y="389" type="curve"/>
      <point x="293" y="387"/>
      <point x="273" y="385"/>
      <point x="269" y="385" type="curve"/>
      <point x="261" y="393"/>
      <point x="239" y="397"/>
      <point x="221" y="397" type="curve" smooth="yes"/>
      <point x="90" y="397"/>
      <point x="55" y="288"/>
      <point x="55" y="203" type="curve" smooth="yes"/>
      <point x="55" y="128"/>
      <point x="81" y="73"/>
      <point x="132" y="29" type="curve"/>
      <point x="132" y="0" type="line"/>
      <point x="68" y="32"/>
      <point x="26" y="108"/>
    </contour>
  </outline>
</glyph>
<glyph name="si_Tta.reph" format="1">
  <advance width="588"/>
  <outline>
    <contour>
      <point x="37" y="0" type="move" name="_cursive"/>
    </contour>
    <contour>
      <point x="247" y="605" type="curve" smooth="yes"/>
      <point x="247" y="584"/>
      <point x="266" y="569"/>
      <point x="287" y="569" type="curve" smooth="yes"/>
      <point x="308" y="569"/>
      <point x="327" y="584"/>
      <point x="327" y="605" type="curve" smooth="yes"/>
      <point x="327" y="626"/>
      <point x="308" y="642"/>
      <point x="287" y="642" type="curve" smooth="yes"/>
      <point x="266" y="642"/>
      <point x="247" y="626"/>
    </contour>
    <contour>
      <point x="147" y="624" type="curve" smooth="yes"/>
      <point x="147" y="686"/>
      <point x="204" y="723"/>
      <point x="284" y="723" type="curve" smooth="yes"/>
      <point x="359" y="723"/>
      <point x="422" y="680"/>
      <point x="422" y="611" type="curve" smooth="yes"/>
      <point x="422" y="588"/>
      <point x="414" y="567"/>
      <point x="397" y="548" type="curve"/>
      <point x="364" y="548" type="line"/>
      <point x="377" y="560"/>
      <point x="393" y="584"/>
      <point x="393" y="610" type="curve" smooth="yes"/>
      <point x="393" y="666"/>
      <point x="343" y="696"/>
      <point x="283" y="696" type="curve" smooth="yes"/>
      <point x="231" y="696"/>
      <point x="178" y="676"/>
      <point x="178" y="624" type="curve" smooth="yes"/>
      <point x="178" y="586"/>
      <point x="218" y="567"/>
      <point x="240" y="565" type="curve"/>
      <point x="232" y="571"/>
      <point x="221" y="585"/>
      <point x="221" y="606" type="curve" smooth="yes"/>
      <point x="221" y="640"/>
      <point x="251" y="665"/>
      <point x="286" y="665" type="curve" smooth="yes"/>
      <point x="326" y="665"/>
      <point x="354" y="638"/>
      <point x="354" y="604" type="curve" smooth="yes"/>
      <point x="354" y="566"/>
      <point x="320" y="541"/>
      <point x="263" y="541" type="curve" smooth="yes"/>
      <point x="205" y="541"/>
      <point x="147" y="569"/>
    </contour>
    <component base="si_Tta"/>
  </outline>
</glyph>
<glyph name="si_Va.reph" format="1">
  <advance width="583"/>
  <outline>
    <contour>
      <point x="46" y="0" type="move" name="_cursive"/>
    </contour>
    <contour>
      <point x="247" y="606" type="curve" smooth="yes"/>
      <point x="247" y="627"/>
      <point x="266" y="643"/>
      <point x="287" y="643" type="curve" smooth="yes"/>
      <point x="308" y="643"/>
      <point x="327" y="627"/>
      <point x="327" y="606" type="curve" smooth="yes"/>
      <point x="327" y="585"/>
      <point x="308" y="570"/>
      <point x="287" y="570" type="curve" smooth="yes"/>
      <point x="266" y="570"/>
      <point x="247" y="585"/>
    </contour>
    <contour>
      <point x="147" y="625" type="curve" smooth="yes"/>
      <point x="147" y="570"/>
      <point x="205" y="542"/>
      <point x="263" y="542" type="curve" smooth="yes"/>
      <point x="320" y="542"/>
      <point x="354" y="567"/>
      <point x="354" y="605" type="curve" smooth="yes"/>
      <point x="354" y="639"/>
      <point x="326" y="666"/>
      <point x="286" y="666" type="curve" smooth="yes"/>
      <point x="251" y="666"/>
      <point x="221" y="641"/>
      <point x="221" y="607" type="curve" smooth="yes"/>
      <point x="221" y="586"/>
      <point x="232" y="572"/>
      <point x="240" y="566" type="curve"/>
      <point x="218" y="568"/>
      <point x="178" y="587"/>
      <point x="178" y="625" type="curve" smooth="yes"/>
      <point x="178" y="677"/>
      <point x="231" y="697"/>
      <point x="283" y="697" type="curve" smooth="yes"/>
      <point x="343" y="697"/>
      <point x="393" y="667"/>
      <point x="393" y="611" type="curve" smooth="yes"/>
      <point x="393" y="585"/>
      <point x="377" y="561"/>
      <point x="364" y="549" type="curve"/>
      <point x="397" y="549" type="line"/>
      <point x="414" y="568"/>
      <point x="422" y="589"/>
      <point x="422" y="612" type="curve" smooth="yes"/>
      <point x="422" y="681"/>
      <point x="359" y="724"/>
      <point x="284" y="724" type="curve" smooth="yes"/>
      <point x="204" y="724"/>
      <point x="147" y="687"/>
    </contour>
    <component base="si_Va"/>
  </outline>
</glyph>
<glyph name="si_Y.halant" format="1">
  <advance width="621"/>
  <outline>
    <contour>
      <point x="413" y="403" type="line"/>
      <point x="413" y="664" type="line"/>
      <point x="466" y="623"/>
      <point x="560" y="618"/>
      <point x="560" y="528" type="curve" smooth="yes"/>
      <point x="560" y="485"/>
      <point x="525" y="456"/>
      <point x="483" y="456" type="curve" smooth="yes"/>
      <point x="468" y="456"/>
      <point x="454" y="459"/>
      <point x="439" y="466" type="curve"/>
      <point x="439" y="400" type="line"/>
    </contour>
    <contour>
      <point x="439" y="490" type="line"/>
      <point x="448" y="485"/>
      <point x="459" y="483"/>
      <point x="472" y="483" type="curve" smooth="yes"/>
      <point x="509" y="483"/>
      <point x="523" y="508"/>
      <point x="523" y="531" type="curve" smooth="yes"/>
      <point x="523" y="572"/>
      <point x="485" y="592"/>
      <point x="439" y="622" type="curve"/>
    </contour>
    <component base="si_Ya"/>
  </outline>
</glyph>
<glyph name="si_Ya.post.MatraI" format="1">
  <advance width="531"/>
  <outline>
    <contour>
      <point x="136" y="514" type="curve" smooth="yes"/>
      <point x="136" y="593.622"/>
      <point x="216.952" y="642"/>
      <point x="310" y="642" type="curve" smooth="yes"/>
      <point x="404.374" y="642"/>
      <point x="496" y="598.021"/>
      <point x="496" y="511" type="curve" smooth="yes"/>
      <point x="496" y="450"/>
      <point x="458" y="405"/>
      <point x="379" y="399" type="curve"/>
      <point x="361" y="421" type="line"/>
      <point x="364" y="421"/>
      <point x="366" y="421"/>
      <point x="369" y="421" type="curve" smooth="yes"/>
      <point x="426" y="421"/>
      <point x="468" y="451"/>
      <point x="468" y="500" type="curve" smooth="yes"/>
      <point x="468" y="556.25"/>
      <point x="377.651" y="575"/>
      <point x="305" y="575" type="curve" smooth="yes"/>
      <point x="235.74" y="575"/>
      <point x="177" y="549.263"/>
      <point x="177" y="504" type="curve" smooth="yes"/>
      <point x="177" y="445"/>
      <point x="279.353" y="421"/>
      <point x="351" y="421" type="curve" smooth="yes"/>
      <point x="352" y="421"/>
      <point x="352" y="422"/>
      <point x="353" y="422" type="curve"/>
      <point x="338" y="402" type="line"/>
      <point x="202.172" y="404.754"/>
      <point x="136" y="446.984"/>
    </contour>
    <contour>
      <point x="12" y="21" type="line"/>
      <point x="102" y="59"/>
      <point x="183" y="138"/>
      <point x="183" y="262" type="curve" smooth="yes"/>
      <point x="183" y="330"/>
      <point x="145" y="396"/>
      <point x="82" y="396" type="curve" smooth="yes"/>
      <point x="67" y="396"/>
      <point x="49" y="393"/>
      <point x="34" y="386" type="curve"/>
      <point x="34" y="412" type="line"/>
      <point x="47" y="419"/>
      <point x="67" y="422"/>
      <point x="84" y="422" type="curve" smooth="yes"/>
      <point x="158" y="422"/>
      <point x="211" y="352"/>
      <point x="211" y="267" type="curve" smooth="yes"/>
      <point x="211" y="209"/>
      <point x="199" y="159"/>
      <point x="163" y="105" type="curve"/>
      <point x="201" y="81"/>
      <point x="246" y="69"/>
      <point x="296" y="69" type="curve" smooth="yes"/>
      <point x="373" y="69"/>
      <point x="445" y="111"/>
      <point x="445" y="188" type="curve" smooth="yes"/>
      <point x="445" y="248"/>
      <point x="396" y="273"/>
      <point x="336" y="273" type="curve" smooth="yes"/>
      <point x="305" y="273"/>
      <point x="243" y="281"/>
      <point x="243" y="344" type="curve" smooth="yes"/>
      <point x="243" y="393"/>
      <point x="288" y="422"/>
      <point x="348" y="422" type="curve" smooth="yes"/>
      <point x="406" y="422"/>
      <point x="450" y="391"/>
      <point x="450" y="333" type="curve" smooth="yes"/>
      <point x="450" y="326"/>
      <point x="449" y="320"/>
      <point x="448" y="313" type="curve"/>
      <point x="418" y="313" type="line"/>
      <point x="419" y="319"/>
      <point x="420" y="325"/>
      <point x="420" y="331" type="curve" smooth="yes"/>
      <point x="420" y="373"/>
      <point x="389" y="396"/>
      <point x="347" y="396" type="curve" smooth="yes"/>
      <point x="312" y="396"/>
      <point x="272" y="381"/>
      <point x="272" y="345" type="curve" smooth="yes"/>
      <point x="272" y="309"/>
      <point x="301" y="299"/>
      <point x="339" y="299" type="curve" smooth="yes"/>
      <point x="414" y="299"/>
      <point x="485" y="260"/>
      <point x="485" y="160" type="curve" smooth="yes"/>
      <point x="485" y="64"/>
      <point x="399" y="0"/>
      <point x="314" y="0" type="curve" smooth="yes"/>
      <point x="238" y="0"/>
      <point x="191" y="20"/>
      <point x="144" y="81" type="curve"/>
      <point x="114" y="47"/>
      <point x="70" y="15"/>
      <point x="28" y="1" type="curve"/>
    </contour>
  </outline>
</glyph>
<glyph name="si_Ya.post.MatraIi" format="1">
  <advance width="531"/>
  <outline>
    <contour>
      <point x="330" y="508" type="curve" smooth="yes"/>
      <point x="330" y="474"/>
      <point x="361" y="446"/>
      <point x="399" y="446" type="curve" smooth="yes"/>
      <point x="437" y="446"/>
      <point x="469" y="474"/>
      <point x="469" y="508" type="curve" smooth="yes"/>
      <point x="469" y="542"/>
      <point x="437" y="569"/>
      <point x="399" y="569" type="curve" smooth="yes"/>
      <point x="361" y="569"/>
      <point x="330" y="542"/>
    </contour>
    <contour>
      <point x="145" y="517" type="curve" smooth="yes"/>
      <point x="145" y="600.906"/>
      <point x="227.721" y="651"/>
      <point x="313" y="651" type="curve" smooth="yes"/>
      <point x="405.852" y="651"/>
      <point x="496" y="604"/>
      <point x="496" y="513" type="curve" smooth="yes"/>
      <point x="496" y="446"/>
      <point x="439" y="421"/>
      <point x="397" y="421" type="curve" smooth="yes"/>
      <point x="354" y="421"/>
      <point x="303" y="453"/>
      <point x="303" y="507" type="curve" smooth="yes"/>
      <point x="303" y="552"/>
      <point x="335" y="577"/>
      <point x="351" y="580" type="curve"/>
      <point x="330" y="583"/>
      <point x="316" y="584"/>
      <point x="293" y="584" type="curve" smooth="yes"/>
      <point x="238.814" y="584"/>
      <point x="186" y="555"/>
      <point x="186" y="504" type="curve" smooth="yes"/>
      <point x="186" y="445"/>
      <point x="286.234" y="421"/>
      <point x="351" y="421" type="curve" smooth="yes"/>
      <point x="352" y="421"/>
      <point x="352" y="422"/>
      <point x="353" y="422" type="curve"/>
      <point x="338" y="402" type="line"/>
      <point x="213.587" y="404.828"/>
      <point x="145" y="448.189"/>
    </contour>
    <contour>
      <point x="12" y="21" type="line"/>
      <point x="102" y="59"/>
      <point x="183" y="138"/>
      <point x="183" y="262" type="curve" smooth="yes"/>
      <point x="183" y="330"/>
      <point x="145" y="396"/>
      <point x="82" y="396" type="curve" smooth="yes"/>
      <point x="67" y="396"/>
      <point x="49" y="393"/>
      <point x="34" y="386" type="curve"/>
      <point x="34" y="412" type="line"/>
      <point x="47" y="419"/>
      <point x="67" y="422"/>
      <point x="84" y="422" type="curve" smooth="yes"/>
      <point x="158" y="422"/>
      <point x="211" y="352"/>
      <point x="211" y="267" type="curve" smooth="yes"/>
      <point x="211" y="209"/>
      <point x="199" y="159"/>
      <point x="163" y="105" type="curve"/>
      <point x="201" y="81"/>
      <point x="246" y="69"/>
      <point x="296" y="69" type="curve" smooth="yes"/>
      <point x="373" y="69"/>
      <point x="445" y="111"/>
      <point x="445" y="188" type="curve" smooth="yes"/>
      <point x="445" y="248"/>
      <point x="396" y="273"/>
      <point x="336" y="273" type="curve" smooth="yes"/>
      <point x="305" y="273"/>
      <point x="243" y="281"/>
      <point x="243" y="344" type="curve" smooth="yes"/>
      <point x="243" y="393"/>
      <point x="288" y="422"/>
      <point x="348" y="422" type="curve" smooth="yes"/>
      <point x="406" y="422"/>
      <point x="450" y="391"/>
      <point x="450" y="333" type="curve" smooth="yes"/>
      <point x="450" y="326"/>
      <point x="449" y="320"/>
      <point x="448" y="313" type="curve"/>
      <point x="418" y="313" type="line"/>
      <point x="419" y="319"/>
      <point x="420" y="325"/>
      <point x="420" y="331" type="curve" smooth="yes"/>
      <point x="420" y="373"/>
      <point x="389" y="396"/>
      <point x="347" y="396" type="curve" smooth="yes"/>
      <point x="312" y="396"/>
      <point x="272" y="381"/>
      <point x="272" y="345" type="curve" smooth="yes"/>
      <point x="272" y="309"/>
      <point x="301" y="299"/>
      <point x="339" y="299" type="curve" smooth="yes"/>
      <point x="414" y="299"/>
      <point x="485" y="260"/>
      <point x="485" y="160" type="curve" smooth="yes"/>
      <point x="485" y="64"/>
      <point x="399" y="0"/>
      <point x="314" y="0" type="curve" smooth="yes"/>
      <point x="238" y="0"/>
      <point x="191" y="20"/>
      <point x="144" y="81" type="curve"/>
      <point x="114" y="47"/>
      <point x="70" y="15"/>
      <point x="28" y="1" type="curve"/>
    </contour>
  </outline>
</glyph>
